<?xml version="1.0" encoding="UTF-8"?>
<svg xmlns="http://www.w3.org/2000/svg" version="1.1" viewBox="0 0 528.23 779.85">
  <!-- Generator: Adobe Illustrator 30.3.0, SVG Export Plug-In . SVG Version: 2.1.3 Build 182)  -->
  <defs>
    <style>
      .st0 {
        fill: none;
      }

      .st1, .st2, .st3 {
        fill: #42ac90;
      }

      .st4 {
        isolation: isolate;
      }

      .st5, .st6, .st3 {
        mix-blend-mode: multiply;
      }

      .st7, .st6 {
        fill: #e5d731;
      }

      .st7, .st6, .st8, .st2, .st9, .st3 {
        fill-rule: evenodd;
      }

      .st10, .st9 {
        fill: #ea545c;
      }

      .st8 {
        fill: #f3e025;
      }
    </style>
  </defs>
  <g class="st4">
    <g id="_レイヤー_1" data-name="レイヤー_1">
      <g class="st5">
        <path class="st7" d="M18.7,487.83c-1.28,9.97,4.79,11.27,8.1,15.27s-.42,10.26,3.25,15.53c3.67,5.28,8.57,4.18,10.72,7.97,2.15,3.78-1.9,10.4,3.41,12.2,5.75,1.95,12.14,1.27,22.34,11.3-9.8-23.29-24.47-56.19-32.26-69.36-6.31-5.91-14.61-.3-15.56,7.09Z"/>
        <path class="st7" d="M139.39,613.79c-4.51-9.96-15.89-12.86-26.7-11.81-2.74-6.56-21.55-52-19.67-57.1,1.09-2.97,7.72,1.13,9.34-4.8.95-3.46-6.22-2.65.81-7.9s-1.96-12.88-12.49-9.39c-10.53,3.49-6.5,14.97-4.66,21.58,1.66,5.93,18.65,49.41,22.13,58.28-1.23.25-2.45.54-3.62.88-6.05-14.52-23.17-60.24-25.02-67.75-2.02-8.2,3.57-14.7,10.57-16.11,7-1.41,12.41-7.58,9.57-12.81-2.83-5.24-2.11-11.47.31-16.53,2.42-5.06,1.85-12.03-3.97-16.16-5.81-4.13-5.11-9.44-3.76-13.47,3.14-9.37-10.76-13.25-16.28-5.31-8.99,12.93-15.01,50.23-4.76,76.14,8.67,21.9,24.31,61.77,28.94,73.58-1.07.45-2.1.94-3.09,1.48-2.28-5.56-30.86-75.34-34.55-88.52-3.84-13.73-.72-32.14,2.77-45.99,2.08-8.25-2.18-18.9-9.27-13.58-4.08,3.06-5.24,2.83-6.6-.07-1.36-2.91-8.1-3.49-9.03.06-.93,3.55-4.2,2.4-6.54,2.1-5.4-.68-7.93,4.96-3.28,8.86,4.65,3.91,16.96,25.4,26.79,49.78,9.01,22.35,33.04,79.56,36.99,88.96-9.4,6.17-14.41,15.95-11.47,24.96,3.85,11.8,25.65,27.08,39.38,30.1,3.51-5.09,22.87-36.81,17.14-49.46Z"/>
      </g>
      <g class="st5">
        <path class="st8" d="M411.6,532.37c-8.57-6.15-2.57-18.75,6.46-30.39,9.03-11.64,63.02-50.31,68.54-52.04,5.52-1.73,3.14,1.65.33,4.58-23.14,24.19-31.84,59.28-43.62,71.36-11.78,12.09-20.88,14.25-31.71,6.49Z"/>
        <path class="st8" d="M530.97,446.51c1.52,12.7-6.35,28.98-26.1,35.85-19.75,6.87-35.83,4.33-39.36,15.91-3.54,11.57-9.05,30.93-16.81,37.35-7.77,6.43-18.78,3.81-20.43,3.37,12.44-2.93,21.72-12.42,26.75-23.63,5.03-11.21,11.66-31.59,18.99-32.78,4.59-.75,14.26-.13,24.88-4.55,6.37-2.65,23.59-13.3,32.07-31.52Z"/>
        <path class="st8" d="M483.06,402.15c5.44-4.96,22.78-13.47,31.71,2.74-5.98-.19-15.29,4.38-16.63,4.93-1.01-3.68-6.62-6.19-15.07-7.67Z"/>
        <path class="st8" d="M494.87,411.27c-1.75-8.68-23.27-9.65-40.38,7.82-17.11,17.48-6.81,40.28-13.23,50.55-6.42,10.27-24.92,17.17-32.49,26.43-7.57,9.26-5.61,25.38-2.07,17.59,6.93-15.25,22.6-26.36,48.09-47.42,2.25-13.93,9.57-45.97,40.08-54.97ZM462.79,419.49c-.48,1.33.03,8.53.35,10.54.32,2.01-2.14,2.22-2.65.33s.02-9.51,1.08-11.8c.67-1.45,1.7-.39,1.22.94ZM453.7,446.5c-1.23-1.35-.86-9.6-.49-11.54.31-1.6,1.56-.95,1.26-.05-.3.9,1.03,8.48,1.63,10.38.59,1.9-1.17,2.57-2.4,1.21ZM471.22,421.42c-.84-1.13,1.04-8.34,1.92-9.77.89-1.43,1.89-2.17,1.13-.05-.8,2.2-.9,6.68-.88,8.03.02,1.34-1.34,2.93-2.17,1.8Z"/>
        <path class="st8" d="M529.63,410.57c-10.65-8.51-34.86,1.27-49.02,11.91-14.16,10.63-23.12,32.17-21.22,41.76,2.36-1.7,23.63-14.7,27.58-17.04,3.95-2.34,8.88.66,4.47,5.49-4.41,4.82-15.65,19.08-18.68,25.68,11.89.13,27.76.26,43.12-16.67,15.36-16.93,24.39-42.62,13.74-51.13ZM478.46,445.7c-1.4-1.3.65-9.01,3-11.13,2.35-2.12,1.46.24.39,1.62s-2.43,6.67-1.75,7.73-.33,3-1.64,1.79ZM495.14,432.37c-.18-1.68,4.71-12.79,7.21-15.81,1.43-1.72,2.52-.09,1.17,1.14-1.35,1.23-4.77,12.5-4.95,14.52-.18,2.02-3.25,1.83-3.43.15ZM491.95,468.01c-.95.97-5.47,4.42-6.72,4.26s-1.56-1.42-.26-1.83c1.31-.41,6.11-2.63,6.51-3.15s1.25-.07.47.73ZM503.13,457.55c-1.28,1.1-8.11,4.05-9.36,3.39s.11-2.24,1.44-2.42c1.33-.19,5.74-.97,7.8-2.09s1.4.03.12,1.12ZM522.47,436.44c-1.07,1.03-11.31,6.78-13.27,7.17-1.96.38-2.77-1.45-.38-2.31,2.39-.87,9.39-3.59,12.91-6.13,1.7-1.23,1.81.24.75,1.27Z"/>
      </g>
      <path class="st3" d="M433.19,603.56c-5.08-3.66-7.53-8.31-4.63-7.47,6.01,1.75,12.9-5.57,9.4-11.04-3.5-5.47-14.4-7.43-15.74,2.4-.33,2.4-2.51,1.75-4.26-.44-1.75-2.19-4.81-7.87-2.62-15.85,0-1.09-7.98-4.7-8.63-.77-.66,3.93,3.17,21.1,13.88,25.03.68,1.58,3.22,5.44,5.06,7.87-40.99.52-74.05,31.08-74.05,68.72s33.63,68.75,75.11,68.75,75.11-30.78,75.11-68.75c0-35.97-30.18-65.46-68.63-68.48ZM430.31,584.4c2.17,0,3.94,1.76,3.94,3.93s-1.76,3.93-3.94,3.93-3.93-1.76-3.93-3.93,1.76-3.93,3.93-3.93ZM392.07,728.82c-3.06-1.02-16.3-12.22-18.59-15.53-2.29-3.31-1.27-8.66-2.55-10.44-1.27-1.78-5.6-4.33-6.11-8.66-.51-4.33-1.78-15.53-4.07-18.33-2.29-2.8,1.02-7.64,1.78-10.44.76-2.8-1.53-7.13.25-11.2,1.78-4.07,6.37-8.15,6.62-13.75.25-5.6,11.61-20.33,24.25-24.18,5.23-1.59,10.17-1.18,5.35,1.27-13.06,6.64-19.66,17.81-19.92,21.38-.25,3.56-3.82,11.2-4.58,15.28-.76,4.07-1.53,15.28-.76,19.61.76,4.33,1.78,13.24.76,16.8-1.02,3.56,1.27,10.69,3.82,12.99,2.55,2.29,2.29,9.93,5.86,11.71,3.56,1.78,8.91,10.44,10.69,11.97,1.78,1.53.25,2.55-2.8,1.53ZM400.99,654.98c2.8,14.26-3.82,16.8-2.04,23.42,1.78,6.62-2.29,12.22.76,16.3,3.06,4.07,4.07,15.79,6.62,20.11,2.55,4.33,8.15,16.3,9.17,18.59,1.02,2.29-1.78,2.29-4.07.76-2.29-1.53-14.77-8.4-21.13-23.93-6.37-15.53-11.2-26.99-10.18-32.08,1.02-5.09,6.62-3.82,6.87-5.6s-2.29-5.6-4.07-8.15c-1.78-2.55,3.31-7.13,3.82-12.99.51-5.86,4.84-12.99,8.91-20.37,4.07-7.38,5.09-12.48,15.28-18.08,5.27-2.9,12.22-3.82,9.17.76-3.06,4.58-21.9,26.99-19.1,41.25ZM429.72,731.87c-5.96,7.65-8.57,5.05-7.85.77.43-2.56,2.29-17.82,1.02-23.42-1.27-5.6-.25-10.44.51-12.48.76-2.04-3.06-5.09-3.06-10.18s3.06-10.69,2.8-15.28c-.25-4.58-2.04-13.24-.25-17.57,1.78-4.33,3.56-10.69.25-13.24-3.31-2.55,1.02-8.4,2.8-10.69,1.78-2.29.76-6.11.76-7.64s1.02-5.86,2.29-8.15c1.14-2.05,2.26-3.26,4.58-.51,5.6,6.62,4.33,9.93,5.6,14.51,1.27,4.58,3.31,13.24,2.29,18.33-1.02,5.09-2.8,14.77-1.53,19.35,1.27,4.58-.25,15.02,2.8,19.1,3.06,4.07-.51,13.24-.51,18.08s-3.31,16.8-7.13,21.9c-3.82,5.09-4.38,5.84-5.39,7.13ZM437.65,732.89c3.31-2.55,14.51-16.8,16.55-21.39,2.04-4.58,7.13-16.8,4.07-26.48-1.26-4,2.04-11.71,1.53-14.77-.51-3.06-1.53-14.26-.76-17.82.76-3.56-6.37-10.18-5.86-14.26.51-4.07-2.29-12.22-11.71-24.44-2.31-3,.11-2.77,2.29-1.53,5.35,3.06,5.86,8.15,9.17,9.93,3.31,1.78,10.18,8.66,12.48,12.48,2.29,3.82,4.84,15.02,6.11,18.59,1.27,3.56,4.84,17.57,3.82,24.44-1.02,6.87-5.6,22.41-7.64,28.01-2.04,5.6-1.53,12.99-4.84,16.8-3.31,3.82-18.08,12.99-22.66,14.26-4.58,1.27-5.86-1.27-2.55-3.82ZM462.89,729.98c-.52.32-1.09-.35-.68-.8,16.26-17.84,22.5-42.23,21.78-49.25-.76-7.38-7.64-16.04-7.38-20.62.25-4.58,5.6-8.4,3.31-12.48-2.29-4.07,1.02-6.37-2.8-8.66-3.82-2.29-8.91-12.22-11.46-14.77-2.55-2.55-.76-4.58,1.78-2.55,9.11,7.29,24.95,28.26,26.23,39.72,1.27,11.46-5.74,23.21-4.33,39.21.47,5.27-9.23,19.62-26.44,30.19Z"/>
      <g class="st5">
        <path class="st10" d="M71.15,90.38c-33.17-8.25-55.99,12.94-62.93,22.97,6.15.65,4.17,3.85,10.35,4.53,8.53.94,12.18,5.74,11,10.35-.8,3.13,6.31,2.27,8.09,3.24,1.78.97,1.29,2.91,3.24,3.24,4.96.83,7.77-.49,6.96-4.04-.81-3.56,5.34-5.02,7.93-4.21,2.59.81,5.34,1.62,5.66-2.26.32-3.88,5.5-6.15,9.06-3.56,3.56,2.59,8.25,2.59,8.57-.65s5.99-6.47,9.38-4.53c3.4,1.94,8.74,4.53,10.19,2.59,1.46-1.94,5.82-3.4,11.16.16.16-2.26-5.5-19.58-38.67-27.83ZM76.84,110.5c-.32-4.39-4.72-12.02-10.38-15.5-2.83,1.22-5.71,2.97-8.57,5.18,3.27,4.41,4.45,12.29,1.9,15.82-1.35,1.88-2.77,1.26-2.32-.6.85-3.58.37-10.19-1.7-13.48-4.88,4.2-9.61,9.7-13.71,16.24-1.1,1.76-4.23,1.02-2.62-1.73,2.31-3.94,5.25-7.89,8.48-11.47-3.23.23-11.44,1.97-18.52,4.94-2.85,1.19-3.27-1.03-.86-2.32,2.37-1.27,14.62-5.52,22.07-5.42,2.06-2.04,4.19-3.91,6.34-5.51-4.91-.36-14.84-.44-19.8.6-2.88.6-5.51-.77.09-2.15,5.17-1.27,17.29-1.07,22.37-.29,3.96-2.53,7.84-4.07,11.21-4.01,2.14.54,5.06,1.72,6.97,2.32-2.46-.37-5.12-.11-7.87.67,4.22,3.08,8.94,9.62,9.33,15.95.21,3.44-2.24,3.1-2.41.77Z"/>
        <path class="st10" d="M54.53,185.7c-5.44-3.26-9.19-11.85-7.5-19.83,1.69-7.98,1.57-11.25-4.47-11.49-6.05-.24-8.46-6.89-6.17-11.25,2.3-4.35-.24-10.28-6.17-9.55-5.93.73-3.87-7.26-6.17-9.92-2.3-2.66-6.29-1.69-11.13-5.08-4.84-3.39-7.86-2.78-10.64-.36-3.49,3.03-2.99,9.96,3.26,17.66,3.14,3.87-1.09,14.27,1.21,22.37,2.3,8.1,14.05,30.41,47.4,31.8,2.9.12,3.12-2.7.36-4.35ZM14.26,160.42c.85,3.87-1.93,3.14-3.02-.6-1.09-3.75-1.57-13.42.36-18.62,1.93-5.2,3.63-3.87,2.66.12-1.26,5.22-.85,15.24,0,19.11ZM21.4,169.73c-3.39-6.89-4.36-18.78-.6-29.51.85-2.42,3.87-3.51,3.02,0-1.35,5.59-2.22,22.88,2.06,30.96,1.09,2.06-1.09,5.44-4.47-1.45ZM37.84,178.8c-3.51-3.39-11.39-11.46-9.55-23.7.36-2.42,3.27-4.96,3.27-.73,0,6.17,4.35,19.23,8.71,22.98,4.35,3.75,1.09,4.84-2.42,1.45Z"/>
        <path class="st10" d="M114.15,127.53c-1.57-3.87-9.92-10.4-12.21-7.38-2.3,3.02-5.27,2.56-7.86,1.09-6.17-3.51-11.32-2.38-12.09.6-.85,3.26-5.8,5.32-9.55,3.51-3.75-1.81-7.86-2.3-7.74,1.45.12,3.75-4.23,5.32-7.38,3.99-3.14-1.33-6.89-.6-5.8,3.51,1.09,4.11-4.84,4.6-9.43,3.75-2.18,4.96-4.84,13.66,1.33,13.42,6.17-.24,12.21,4.23,8.46,11.13-3.75,6.89,1.09,20.44,7.62,23.34,4.96-2.18,5.46.92,14.99.12,5.8-.48,14.87-2.3,25.64-8.46,18.59-10.66,20.04-35.27,14.03-50.06ZM108.59,151.47c-.5,5.78-5.08,13.76-12.88,17.99-.87,3.05-2.15,5.72-3.93,7.77-1.57,1.81-4.84,1.93-3.63-.48.39-.79.85-1.81,1.31-3.03-5.28-.93-16.87-4.15-23.8-7.37-2.9-1.35-1.81-4.47,1.57-3.14,3.17,1.24,13.1,5.34,23.47,6.86,1.08-3.62,2-8.12,2.16-12.99-17.13-.86-29.45-9.68-31.19-12.01-1.81-2.42,1.09-3.87,3.99-.85,2.74,2.85,18.94,8.29,27.15,8.79-.08-1.31-.21-2.62-.43-3.95-1.93-11.85-5.44-18.26-7.74-21.04-2.3-2.78.42-4.56,2.66-2.06,3.04,3.39,5.6,8.84,7.35,15.01,2.78-2.43,5.7-8.06,5.59-11.75-.12-4.11,1.81-1.93,2.66.85.81,2.68-1.41,10.06-7.18,15.24,1.38,6.58,1.81,13.6.92,19.72,5.24-3.78,9.13-8.78,10.13-15.13,1.09-6.89,2.06-1.21,1.81,1.57Z"/>
      </g>
      <path class="st6" d="M486.27,109c-2.41-5-16.12-8.84-32.71-8.84-18.07,0-32.74,4.55-33.09,10.2-13.55,8-22.31,20.66-22.31,34.9,0,24.2,25.26,43.82,56.42,43.82s56.42-19.62,56.42-43.82c0-15.08-9.81-28.38-24.73-36.26ZM462.81,107.39c2.03-1.67,8.47-2.71,10.53-2.71s3.37,1.3.76,1.74c-2.61.43-9.01,1.19-10.31,1.95-1.3.76-2.82.54-.98-.98ZM460.61,114.4c0,2.72-4.58,4.93-10.23,4.93s-10.23-2.21-10.23-4.93,4.58-4.93,10.23-4.93,10.23,2.21,10.23,4.93ZM440.01,103.7c1.16.37,2.61,1.3,3.04,2.06.43.76.11,2.5-.98,1.19-1.09-1.3-2.06-1.95-3.58-2.5-1.52-.54-.54-1.41,1.52-.76ZM423.5,114.23c2.06-.98,6.85-2.13,9.01-1.74,5.43.98-.33,2.06-3.47,2.5-3.15.43-7.6.22-5.54-.76ZM408.64,132.08c2.19-3.53,10.44-8.93,13.7-10.2,3.51-1.37,4.72.78,1.45,1.53-3.27.75-11.53,6.77-13.57,9.56-2.03,2.79-3.78,2.64-1.59-.89ZM416.17,173.83c-6.78-4.47-12.7-21.86-10.37-29.13,1.19-3.71,1.79-2.43,1.8.04.02,7.67-.45,16.46,9.9,27.79,3.21,3.52,3.13,4.24-1.33,1.3ZM421.98,152.77c.54,1.85-1.19,2.17-1.95-.11-.76-2.28-.65-8.9-.11-11.07s2.39-2.82,2.17,0c-.21,2.78-.65,9.34-.11,11.18ZM429.41,178.5c-1.84-1.54-5.22-7.24-5.89-9.38-.67-2.13.56-3.66,1.85-1.14,1.27,2.48,4.33,8.3,5.76,9.58,1.43,1.29.12,2.48-1.72.93ZM440.23,179.81c-12.38-15.96-15.19-37.39-3.37-51.57,1.63-1.95,1.85-.76,1.09.33-8.08,11.55-10.86,33.01,4.78,51.25,1.2,1.4-1.5,1.29-2.5,0ZM450.08,170.13c-1.15-1.72-5.45-7.15-4.15-13.32.57-2.72,1.72-3.44,1.72.29s2.87,9.74,4.15,11.75c1.29,2.01-.57,3.01-1.72,1.29ZM450.23,125.08c-5.65,0-10.03-3.81-10.03-6.53,0-.26.05-.51.13-.76.76,2.36,4.98,4.17,10.09,4.17s9.33-1.81,10.09-4.17c.08.25.13.5.13.76,0,2.72-4.78,6.53-10.42,6.53ZM462.11,163.26c0-4.01-2.72-25.07-3.58-28.37-.86-3.3.86-3.44,1.72-1,2.38,6.75,4.58,26.36,4.58,29.23s-2.72,4.15-2.72.14ZM479.33,173.34c-.64,1.5-3.23,2.29-2.42.63,10.55-21.58,2.47-41.66-8.25-50.8-1.01-.86-1.1-2.07.97-.59,15.01,10.76,17.67,32.21,9.7,50.77ZM490.85,135.94c.23-3.48-9.24-15.82-11.98-16.57-2.12-.58-2.36-2.79.34-1.56,7.49,3.42,13.05,13.16,13.16,18,.1,4.21-1.72,3.06-1.53.12ZM499.18,164.17c-2.58,2.91-2.62,1.5-1.63-.76,3.08-7.03,7.06-14.87,2.17-29.42-1.52-4.51-1.15-5.14,1.74-.65,4.4,6.83,2.79,25.13-2.28,30.84Z"/>
      <g class="st5">
        <path class="st9" d="M63.59,330.75c-12.53-10.37-22.97-3-33.35,9.53-7.39,8.92-24.02,37.79-36.35,59.91l-.38,80.18c1.36-1.51,2.72-3.03,4.06-4.54,16.76-18.9,60.07-93.98,68.62-107.74,8.55-13.77,9.92-26.97-2.61-37.34ZM45.41,384.22c-1.13-1.15-2.1-1.7-3.58-2.1-1.48-.4-.62-1.3,1.38-.83,1.12.26,2.57,1.04,3.03,1.73.47.69.29,2.36-.84,1.2ZM49.2,367.18c-1.13-1.15-2.1-1.7-3.58-2.1-1.48-.4-.62-1.3,1.38-.83,1.12.26,2.57,1.04,3.03,1.73.47.69.29,2.36-.84,1.2ZM58.76,365.28c-1.82-1.93-6.15-6.42-7.8-7.22-1.64-.8-.76-2.23,1.32-1.31s6.68,5.23,7.86,7c1.18,1.77.46,3.48-1.39,1.53ZM61.58,352.19c-2.1-2.85-7.68-5.85-9.79-6.66-2.12-.81-1.25-2.63.59-1.95,1.84.67,8.2,2.41,10.68,7.86,1.09,2.41.62,3.6-1.48.75Z"/>
        <path class="st9" d="M42.49,291.54s10.29,18.83,7.89,29.63c1.33.02,7.84.1,10.11,1.37.08-.49-.9-28.13-5.96-35.69l-12.04,4.69Z"/>
        <path class="st9" d="M68.61,327.56s-4.72-3.24-5.62-4.01c4.19-12.51,1.47-33.14-.15-38.44,0,0,8.19-1.61,10.55,2.3.43.81-.72,19.82-1.99,23.54,2.88-1.67,9.63-13.9,10.37-16.73.48-.04,5.75,5.69,6.8,6.69,1.04,1-12.91,19.58-19.95,26.65Z"/>
        <path class="st9" d="M69.73,331.09c-.37-.39,23.39-25.72,23.91-25.28.52.44,4.48,7.84,4.48,7.84l-20.87,16.48,21.76-11.37,1.63,6.86s-16.88,9.05-16.39,9.13,19.35-3.7,19.35-3.7l-2.65,9.13-25.33,1.28s-2.2-6.45-5.88-10.38Z"/>
      </g>
      <g class="st5">
        <path class="st2" d="M194.73,661.51c-13.86-11.47-25.4-3.32-36.86,10.54-11.47,13.86-43.1,71.2-53.39,90.29-2.39,4.44-5.22,10-8.19,16.43l55.64-.54c19.24-30.57,39.84-66.01,45.7-75.44,9.46-15.22,10.97-29.81-2.89-41.28ZM174.63,720.62c-1.24-1.27-2.32-1.88-3.96-2.32-1.64-.44-.69-1.43,1.53-.92,1.24.29,2.84,1.15,3.35,1.91.52.76.32,2.61-.92,1.33ZM178.83,701.78c-1.24-1.27-2.32-1.88-3.96-2.32-1.64-.44-.69-1.43,1.53-.92,1.24.29,2.84,1.15,3.35,1.91.52.76.32,2.61-.92,1.33ZM189.39,699.69c-2.01-2.13-6.8-7.1-8.62-7.98s-.85-2.46,1.46-1.44,7.38,5.78,8.69,7.74c1.31,1.96.51,3.85-1.53,1.69ZM192.51,685.22c-2.32-3.15-8.48-6.46-10.82-7.36-2.34-.9-1.39-2.9.65-2.16,2.04.74,9.07,2.66,11.8,8.69,1.21,2.66.68,3.98-1.63.83Z"/>
        <path class="st2" d="M171.41,618.17s11.38,20.82,8.72,32.75c1.47.02,8.67.11,11.18,1.51.09-.54-1-31.1-6.59-39.45l-13.31,5.19Z"/>
        <path class="st2" d="M200.28,657.99s-5.21-3.58-6.21-4.44c4.63-13.82,1.63-36.64-.17-42.49,0,0,9.05-1.78,11.66,2.54.47.9-.8,21.91-2.2,26.02,3.18-1.85,10.64-15.37,11.46-18.5.53-.04,6.36,6.29,7.51,7.4,1.15,1.11-14.27,21.65-22.05,29.46Z"/>
        <path class="st2" d="M201.52,661.89c-.41-.43,25.86-28.43,26.43-27.94.57.49,4.95,8.67,4.95,8.67l-23.07,18.22,24.05-12.56,1.8,7.59s-18.66,10.01-18.12,10.1,21.39-4.09,21.39-4.09l-2.93,10.09-28,1.42s-2.43-7.14-6.51-11.48Z"/>
      </g>
      <path class="st10" d="M67.73,592.44c-7.56-4.99-11.27-13.53-12.37-20.79-.34-2.23-1.68-3.36-3.29-2.6-.9.43-1.85.62-2.6.4.71,9.1-3.89,16.61-10.39,23.99-6.5,7.38-18.04,14.5-19.07,31.18-.8,13.03,6.54,22.32,17.28,26.62-5.31-5.83-11.48-14.43-10.73-25.95,1.38-21.31,20.34-32,22.69-41.96,2.36-9.96,3.1-5.02,1.11.46-4.75,13.09-20.8,27.42-20.34,41.86.38,12.05,5.72,20.57,10.6,26.73,4.17,1.21,8.74,1.72,13.46,1.49-7-4.57-15.53-12.96-17.44-22.91-1.48-7.7,6.18-24.13,10.71-34.67,1.54-3.58,2.55-3.94,1.26.02-2.97,9.05-8.29,23.16-7.25,32.47,1.34,11.97,11.62,22.33,15.33,24.89.7-.07,1.39-.16,2.1-.27,2.91-.44,5.57-1.13,8.03-2.01-14.42-6.48-18.21-35.08-15.33-60.13.31-2.68,1.4-2.72,1.6-.2,2.42,29.95,12.11,53.16,15.16,59.79,3.04-1.22,5.72-2.76,8.05-4.54,1.4-8.66-3.39-23.26-10.39-33.21-5.84-8.29-10.97-17.36-13.03-29.71-.44-2.66.58-3.34,1.38-.15,1.33,5.33,3.31,11.63,8.56,17.92,8.38,10.04,18.2,22.05,16.28,42.75,2.02-1.97,3.66-4.17,5-6.5-.07-9.76-3.53-27-15.43-37.06-7.27-6.14-13.7-14.38-14.16-19.63-.1-1.16.78-1.55.92-.83,1.03,5.11,4.49,10.5,12.15,16.76,8.41,6.86,20.35,19.25,18.56,36.55,1.56-4.06,2.26-8.4,2.1-12.74-.54-14.83-10.63-21.51-20.51-28.04Z"/>
      <path class="st10" d="M493.37,562.16c-7.91-5.23-11.79-14.17-12.95-21.76-.36-2.34-1.76-3.52-3.44-2.72-.94.45-1.93.64-2.72.42.74,9.53-4.07,17.38-10.87,25.11-6.81,7.73-18.88,15.17-19.96,32.64-.84,13.64,6.84,23.36,18.08,27.86-5.56-6.1-12.01-15.1-11.23-27.16,1.44-22.3,21.29-33.49,23.75-43.91,2.47-10.42,3.25-5.25,1.16.49-4.97,13.7-21.77,28.7-21.29,43.81.4,12.61,5.99,21.53,11.09,27.98,4.37,1.26,9.15,1.8,14.09,1.56-7.32-4.78-16.25-13.57-18.25-23.98-1.55-8.06,6.46-25.26,11.21-36.29,1.62-3.75,2.67-4.12,1.31.02-3.11,9.47-8.68,24.24-7.59,33.99,1.41,12.53,12.17,23.37,16.05,26.05.73-.08,1.46-.17,2.19-.28,3.04-.46,5.83-1.18,8.4-2.1-15.09-6.78-19.06-36.71-16.04-62.94.32-2.81,1.46-2.85,1.67-.21,2.53,31.35,12.67,55.64,15.87,62.58,3.18-1.28,5.99-2.89,8.43-4.75,1.46-9.07-3.55-24.35-10.87-34.75-6.11-8.67-11.48-18.17-13.64-31.09-.46-2.78.61-3.5,1.44-.16,1.39,5.58,3.47,12.17,8.96,18.75,8.77,10.51,19.05,23.08,17.04,44.74,2.12-2.06,3.83-4.37,5.23-6.8-.08-10.22-3.69-28.26-16.15-38.79-7.61-6.43-14.34-15.05-14.82-20.54-.11-1.21.81-1.62.97-.87,1.08,5.34,4.69,10.99,12.72,17.54,8.8,7.18,21.3,20.14,19.43,38.25,1.64-4.25,2.36-8.79,2.19-13.33-.57-15.52-11.13-22.51-21.47-29.34Z"/>
      <g class="st5">
        <path class="st1" d="M457.31,321.11c.09.51.01.52.1,1.03.09.51.21.49.3,1,.09.51.13.5.22,1.01.09.51-.29.72.14,1.04.42.31.54.04,1.04-.03.51-.07.48-.2.99-.27.51-.07.5-.07,1.01-.14.51-.07.53.09,1.04.02.51-.07.49-.16.99-.23.5-.07.51-.01,1.02-.08.5-.07.48-.19.98-.26.5-.07.49-.12,1-.19.5-.07.68.3.96-.11.29-.41-.08-.46-.18-.98-.09-.51-.07-.51-.17-1.03-.09-.51-.1-.51-.19-1.02-.09-.51-.04-.52-.13-1.03-.09-.51-.12-.51-.22-1.02-.09-.51-.01-.52-.1-1.03-.09-.51-.22-.49-.31-1-.09-.51,0-.52-.1-1.03-.09-.51-.06-.51-.16-1.02-.09-.51-.15-.5-.25-1.01-.09-.51-.14-.5-.24-1.01-.09-.51-.05-.52-.14-1.03-.09-.51-.11-.51-.21-1.02-.09-.51-.06-.51-.15-1.02-.09-.51.27-.73-.15-1.05-.42-.31-.51.18-1.02.24-.51.07-.52-.02-1.03.05-.51.07-.51.02-1.02.09-.5.07-.51.04-1.02.11-.51.07-.49.17-.99.24-.5.07-.52-.02-1.02.05-.5.07-.49.17-.99.24-.5.07-.53-.09-1.04-.02-.5.07-.72-.17-1.01.24-.29.41.03.5.25,1.03.2.48.12.52.21,1.03.09.51.11.51.2,1.02.09.51-.02.53.07,1.04q.09.51.18,1.02c.09.51.16.5.26,1.01.09.51.04.52.13,1.03.09.51.13.5.23,1.02.09.51.04.52.13,1.03.09.51.16.5.25,1.01.09.51,0,.52.1,1.03Z"/>
        <path class="st1" d="M463.44,337.71c.5-.07.51-.04,1.02-.11.51-.07.49-.17.99-.24.5-.07.52.02,1.02-.05.5-.07.49-.17.99-.24.5-.07.53.09,1.04.02.5-.07.72.17,1.01-.24.29-.41.05-.53-.17-1.05-.2-.48,0-.51-.1-1.02-.09-.51-.21-.49-.3-1-.09-.51-.13-.5-.22-1.01-.09-.51-.04-.51-.13-1.02-.09-.51.01-.52-.08-1.03-.09-.5-.22-.49-.31-.99-.09-.51-.09-.51-.18-1.01-.09-.51.07-.53-.02-1.03-.09-.51.13-.72-.3-1.03-.42-.31-.56,0-1.06.07-.51.07-.48.19-.99.26-.51.07-.5.12-1,.19-.5.07-.51.06-1.01.13-.51.07-.51.05-1.01.12-.5.07-.51.05-1.01.12-.5.07-.5.07-1.01.14-.5.07-.51.01-1.02.08-.5.07-.7-.24-.99.16-.29.41.01.51.1,1.02.09.51.21.49.31,1,.09.51,0,.52.1,1.02.09.51.06.51.15,1.02.09.51.15.5.24,1,.09.51.14.5.23,1,.09.5.05.51.14,1.02.09.51.11.5.2,1.01.09.51.06.51.15,1.02.09.51-.27.73.15,1.04.42.31.51-.18,1.02-.24.51-.07.52.02,1.03-.05.51-.07.51-.02,1.02-.09Z"/>
        <path class="st1" d="M471.57,348.18c-.09-.48-.03-.49-.12-.96-.09-.48-.21-.46-.3-.94-.09-.48-.14-.47-.23-.95-.09-.48-.08-.48-.17-.96-.09-.48-.07-.48-.15-.96-.09-.48-.07-.48-.15-.96-.09-.48-.09-.48-.18-.95-.09-.48-.03-.48-.12-.96-.09-.48.21-.66-.2-.94-.43-.3-.51,0-1.02.06-.51.07-.48.19-.99.26-.51.07-.52-.01-1.03.05s-.51.04-1.01.11c-.51.07-.49.13-1,.2-.5.07-.5.12-1,.19-.5.07-.51.03-1.02.1-.5.07-.5.09-1.01.16-.5.07-.7-.29-1.01.1-.29.38.04.48.13.95.09.48.2.46.29.94.09.48,0,.49.08.97.09.48.04.48.13.96.09.48.06.48.14.96.09.48.19.46.27.94.09.48,0,.49.08.96.09.48.19.46.27.94.09.48-.07.5.01.98.09.48-.13.68.28.96.43.3.53.06,1.04-.13.48-.17.51.01,1.02-.06.51-.07.48-.19.99-.25.51-.07.5-.1,1-.17.5-.07.51-.02,1.02-.09.5-.07.52.04,1.03-.03.5-.07.48-.2.98-.27.5-.07.5-.07,1.01-.14.5-.07.83.37,1.13-.03.29-.38-.15-.58-.24-1.05Z"/>
        <path class="st1" d="M470.57,327.35c.09.51.03.51.13,1.02.09.51.22.49.31,1,.09.51.15.5.24,1s.09.51.18,1.01c.09.51.07.51.16,1.01.09.5.07.51.16,1.01.09.51.1.51.19,1.01.09.51.04.51.13,1.02.09.51-.21.69.21,1,.42.31.51,0,1.02-.06.51-.07.48-.19.99-.26.51-.07.52.01,1.03-.05.5-.07.51-.04,1.01-.11.5-.07.49-.13,1-.2.5-.07.49-.12,1-.19.5-.07.51-.03,1.01-.1.5-.07.5-.09,1.01-.16.5-.07.72.3,1.01-.1.29-.41-.05-.5-.14-1.01-.09-.51-.2-.49-.3-1-.09-.51,0-.52-.09-1.02-.09-.51-.05-.51-.14-1.02-.09-.51-.06-.51-.15-1.02-.09-.51-.19-.49-.28-1-.09-.5,0-.52-.1-1.02-.09-.51-.19-.49-.28-1-.09-.51.07-.53-.03-1.03-.09-.51.14-.71-.28-1.02-.42-.31-.53-.07-1.04.12-.47.18-.51-.01-1.02.06-.51.07-.48.19-.99.25-.5.07-.5.1-1,.17-.5.07-.51.02-1.02.09-.5.07-.52-.04-1.03.03-.5.07-.48.2-.98.27-.5.07-.5.07-1.01.14-.5.07-.84-.37-1.13.03-.29.41.16.6.25,1.11Z"/>
        <path class="st1" d="M492.86,316.45c.09.49.22.47.31.96.09.49.09.49.18.98.09.49-.07.51.01,1,.09.49-.12.7.29,1,.4.3.53,0,1.01-.06.48-.07.46-.19.94-.26.48-.07.47-.12.95-.19.48-.07.48-.06.96-.13.48-.07.48-.05.96-.11.48-.06.48-.05.96-.11.48-.06.48-.07.95-.13.48-.07.71.3.98-.08.28-.4-.12-.5-.21-.99-.09-.49,0-.5-.1-.99-.09-.49-.21-.47-.3-.96-.09-.49,0-.5-.09-.99-.09-.49-.06-.49-.15-.98-.09-.49-.15-.48-.24-.97-.09-.49-.14-.48-.23-.97-.09-.49-.05-.5-.13-.99-.09-.49-.11-.49-.2-.98-.09-.49-.06-.49-.15-.98-.09-.49-.04-.5-.13-.99-.09-.49.15-.61-.26-.91-.4-.3-.43,0-.91.06-.48.07-.49.02-.97.08-.48.07-.48.04-.96.1-.48.07-.46.17-.94.23-.48.07-.49-.02-.97.04-.48.06-.46.16-.94.23-.48.06-.51-.09-.98-.03-.48.07-.69-.15-.96.23-.28.4-.02.5.18,1.01.19.46.15.48.24.97.09.49,0,.5.09.99.09.49,0,.5.1.99.09.49.21.47.29.96.09.49.12.48.21.97.09.49.04.5.12.98.09.49-.02.5.07.99Z"/>
        <path class="st1" d="M482.44,325.74c.09.51.04.51.13,1.02.09.51.22.49.31,1,.09.51.15.5.24,1,.09.51.09.51.18,1.01.09.51.07.51.16,1.01.09.5.07.51.16,1.01.09.51.09.51.19,1.01.09.51.04.51.13,1.02.09.51-.22.69.21,1,.42.31.51,0,1.02-.06.51-.07.48-.19.99-.26.51-.07.52.01,1.02-.05s.51-.04,1.01-.11c.5-.07.49-.13,1-.2.5-.07.49-.12,1-.19.5-.07.51-.03,1.01-.1.5-.07.5-.09,1.01-.16.5-.07.72.3,1.01-.1.29-.41-.05-.51-.14-1.01-.09-.51-.2-.49-.3-1-.09-.51,0-.52-.09-1.02-.09-.51-.05-.51-.14-1.02-.09-.51-.06-.51-.15-1.02-.09-.51-.19-.49-.28-1-.09-.5,0-.52-.1-1.02-.09-.51-.19-.49-.28-1-.09-.51.07-.53-.03-1.03-.09-.51.14-.71-.29-1.02-.42-.31-.53-.07-1.04.12-.47.18-.51-.01-1.02.06-.5.07-.48.19-.99.25s-.5.1-1,.17c-.5.07-.51.02-1.02.09-.5.07-.52-.04-1.03.03-.5.07-.48.2-.98.27-.5.07-.5.07-1.01.14-.5.07-.84-.37-1.13.03-.29.41.16.6.25,1.11Z"/>
        <path class="st1" d="M457.41,337.43c-.09-.51-.15-.5-.24-1.01-.09-.51-.09-.51-.18-1.01-.09-.51-.07-.51-.16-1.01-.09-.51-.07-.51-.16-1.01-.09-.51-.1-.51-.19-1.01-.09-.5-.04-.51-.13-1.02-.09-.51-.12-.5-.21-1.01-.09-.51,0-.52-.1-1.02-.09-.51.14-.65-.28-.96-.43-.31-.49,0-1,.07-.52.07-.52.04-1.04.11-.51.07-.5.13-1.02.2-.51.07-.51.12-1.02.19-.51.07-.52.03-1.04.1-.51.07-.51.09-1.02.16-.51.07-.73-.3-1.02.11-.3.41.05.5.14,1.01.09.51.2.49.3,1,.09.51,0,.52.09,1.02.09.51.04.51.14,1.02.09.51.06.51.15,1.02.09.51.19.49.28,1,.09.5,0,.52.1,1.02.09.51.19.49.28,1,.09.51-.07.53.03,1.03.09.51-.14.71.29,1.02.43.31.53.04,1.05-.15.48-.18.53.03,1.05-.04.51-.07.49-.2,1-.27s.51-.07,1.03-.14c.51-.07.54.09,1.06.02.51-.07.5-.16,1.01-.23.51-.07.81.28,1.11-.13.3-.41-.2-.57-.29-1.08Z"/>
        <path class="st1" d="M503.47,331.17c-.2-.48-.13-.5-.22-1.01-.09-.51-.04-.51-.13-1.02-.09-.51.01-.52-.08-1.03-.09-.51-.22-.49-.31-.99-.09-.51-.09-.51-.19-1.01-.09-.5.07-.53-.02-1.03-.09-.51-.18-.49-.27-1-.09-.51-.03-.51-.13-1.02-.09-.51.11-.66-.3-.98-.39-.3-.46.12-.94.19-.48.07-.48.06-.96.13-.48.07-.48.05-.96.11-.48.07-.48.05-.96.11s-.48.07-.96.13c-.48.06-.49.01-.97.08-.48.06-.47.1-.95.16-.48.07-.75-.31-1.02.08-.28.42.2.54.3,1.05.09.51,0,.52.1,1.03.09.51.06.51.15,1.02.09.51.15.5.24,1,.09.51.14.5.23,1.01.09.51.05.51.14,1.02.09.5.11.5.2,1.01.09.51.06.51.15,1.02.09.51.05.51.14,1.02.09.51-.15.62.26.94.39.3.43,0,.91-.06.48-.07.49-.02.97-.08.48-.07.48-.04.96-.1.48-.07.46-.17.94-.23.48-.07.49.02.97-.04.48-.06.46-.16.94-.23.48-.06.51.09.98.03.48-.07.7.16.96-.23.28-.42,0-.51-.21-1.03Z"/>
        <path class="st1" d="M483.44,346.56c-.09-.48-.03-.49-.12-.96-.09-.48-.21-.46-.3-.94-.09-.48-.14-.47-.23-.95-.09-.48-.08-.48-.17-.96-.09-.48-.07-.48-.15-.96-.09-.48-.07-.48-.15-.95-.09-.48-.09-.48-.18-.95-.09-.48-.03-.48-.12-.96-.09-.48.21-.66-.2-.94-.43-.3-.51,0-1.02.06-.51.07-.48.19-.99.26-.51.07-.52-.01-1.03.05-.5.07-.51.04-1.01.11-.5.07-.49.13-1,.2-.5.07-.49.12-1,.19-.5.07-.51.03-1.01.1-.5.07-.5.09-1.01.16-.5.07-.7-.29-1.01.1-.29.38.04.48.13.95.09.48.2.46.29.94.09.48,0,.49.08.97.09.48.04.48.13.96.09.48.06.48.14.96.09.48.19.46.27.94.09.48,0,.49.08.96.09.48.19.46.27.94.09.48-.07.5.01.98.09.48-.13.68.28.96.43.3.53.06,1.04-.13.48-.17.51.01,1.02-.06.51-.07.48-.19.99-.25.5-.07.5-.1,1-.17.5-.07.51-.02,1.02-.09.5-.07.52.04,1.03-.03.5-.07.48-.2.98-.27.5-.07.5-.07,1.01-.14.5-.07.83.37,1.13-.03.29-.38-.15-.58-.24-1.05Z"/>
        <path class="st1" d="M492.89,349.1c-.5.07-.5.09-1.01.16-.5.07-.51.04-1.01.11-.5.07-.51.03-1.02.09-.5.07-.48.18-.99.25-.5.07-.52-.02-1.02.05-.5.07-.74-.28-1.05.11-.29.36.04.51.13.97.08.46.19.45.27.91.08.46,0,.47.08.93.08.46.18.45.27.91s-.07.48,0,.94c.08.46-.13.66.27.93.43.29.57.16,1.08-.03.48-.17.46-.15.97-.22.5-.07.51-.01,1.02-.08s.48-.19.99-.26c.5-.07.49-.12,1-.19.5-.07.5-.06,1.01-.13.5-.07.51-.05,1.01-.12.5-.07.51-.05,1.01-.12s.68.26.99-.13c.29-.36-.03-.44-.12-.9-.08-.46-.12-.46-.2-.92-.08-.46,0-.47-.08-.93-.08-.46-.21-.44-.29-.91-.08-.46,0-.47-.08-.93-.08-.46.24-.7-.16-.96-.43-.29-.53.12-1.04.19-.51.07-.5.12-1,.19-.5.07-.51.03-1.02.1Z"/>
        <path class="st1" d="M501.78,287.57c2.92-3.95,8.71-5.12,9.92-3.36,2.95,4.27,11.14,3.2,14.48,2.04,3.34-1.16,1.41-3.01-.24-2.9-1.65.12-10.7.3-16.92-7.55-6.22-7.86-19.27-6.63-21.87-5.59-2.01.8.84,5.11,2.32,4.27,4.67-2.32,12.79.27,15.32,2.72,1.24,1.21,2.77,2.94-.29,3.66-1.15.27-5.21,1.65-7.08,4.54-1.29-.56-2.61-1.09-3.97-1.54-25-8.38-52.06,5.08-60.44,30.08-8.38,25,5.08,52.06,30.08,60.44,25,8.38,52.06-5.08,60.44-30.08,7.4-22.05-2.22-45.71-21.75-56.73ZM458.05,291.13c.21-.28.51-.48.9-.53.49-.07.49-.09.98-.16.49-.07.5-.05.99-.12.49-.07.49-.08.99-.15s.49-.07.99-.14c.49-.07.5-.05.99-.12.49-.07.49-.08.98-.14.49-.07.49-.08.98-.15.49-.07.5-.02.99-.09.49-.07.49-.1.98-.17.49-.07.49-.07.99-.14.49-.07.69.27.97-.13.29-.42-.07-.5-.16-1.02l-.18-1.03c-.07-.38.03-.74.24-1.03.21-.28.52-.47.91-.52.38-.05.75.04,1.05.25.3.22.5.54.57.92.09.52.09.52.19,1.03.09.52-.25.73.19,1.04.45.32.54-.1,1.08-.17s.54-.05,1.08-.12c.53-.07.53-.1,1.07-.17.53-.07.54-.06,1.07-.14s.54-.06,1.07-.13c.53-.07.53-.09,1.07-.16.53-.07.54-.06,1.07-.13.38-.05.75.06,1.05.27.3.22.54.53.61.91.07.38-.05.75-.25,1.03-.21.28-.52.48-.91.53q-.54.07-1.07.15c-.54.07-.53.09-1.07.16-.53.07-.54.07-1.07.14-.53.07-.54.06-1.07.13-.53.07-.53.1-1.06.18-.53.07-.54.05-1.07.13-.53.07-.72-.24-1.07.15-.29.31.06.44.13.86.08.43.11.42.19.85.08.42.06.43.13.85.07.38,0,.75-.21,1.03-.21.28-.53.47-.92.52-.38.05-.75-.05-1.05-.27-.3-.22-.52-.53-.59-.91-.08-.43-.07-.43-.14-.85-.08-.43-.08-.43-.16-.85-.08-.43.22-.61-.16-.85-.43-.27-.49.08-.98.15-.49.07-.5.06-.99.13-.49.07-.5.05-.99.12-.49.07-.5.05-.99.12q-.49.07-.99.14c-.49.07-.49.08-.98.15-.49.07-.49.07-.98.13-.49.07-.49.08-.98.15-.49.07-.49.06-.99.13-.49.07-.49.08-.98.14-.49.07-.5.05-.99.12-.38.05-.76-.04-1.05-.25s-.49-.54-.56-.93c-.07-.38.02-.73.23-1.02ZM514.99,333.48c-.51.07-.49.14-1,.2-.51.07-.51.05-1.01.11-.5.07-.52-.02-1.02.05-.5.07-.52,0-1.02.06s-.49.16-.99.23c-.5.07-.51.05-1.01.11-.5.07-.49.15-.99.22-.5.07-.72-.31-1,.1-.3.42.1.5.19,1.02.09.52.18.51.28,1.03.09.52-.1.54,0,1.06.09.52.16.51.26,1.03.09.52.04.53.13,1.04.09.52.17.51.26,1.02.09.52.03.53.13,1.04.09.52.05.52.14,1.04.09.52.29.49.38,1.01.09.52-.05.54.05,1.05.07.38,0,.74-.2,1.03-.21.28-.54.41-.92.46s-.77.06-1.07-.16c-.3-.22-.55-.57-.62-.95-.09-.52-.11-.52-.2-1.04s.02-.53-.07-1.05q-.09-.52-.19-1.04c-.09-.52-.17-.51-.26-1.03-.09-.52-.04-.53-.13-1.04-.09-.52-.14-.51-.23-1.03-.09-.52-.04-.52-.14-1.04-.09-.52-.16-.51-.25-1.03-.09-.52,0-.53-.1-1.05-.09-.52.27-.79-.15-1.12-.39-.31-.55.16-1.03.22-.48.07-.47.1-.95.17-.48.07-.49.02-.97.08-.48.07-.5-.04-.98.03-.48.07-.45.2-.93.26-.48.06-.48.07-.96.13-.48.06-.51-.1-.98-.03-.48.07-.7-.14-.98.24-.28.39.02.53.11,1,.09.48.21.46.3.94.09.48.14.47.23.95.09.48.08.48.17.96.09.48.07.48.15.96.09.48.07.48.15.96.09.48.09.48.18.95.09.48.03.48.12.96.09.48.12.47.2.95.09.48-.29.75.12,1.01.47.3.57-.19,1.11-.26s.56,0,1.1-.06c.38-.05.72.07,1.02.29.3.22.55.49.62.88.07.38.02.78-.19,1.07-.21.28-.57.47-.96.52-.54.07-.54.1-1.08.17-.54.07-.74-.29-1.09.11-.3.35.04.46.12.92.08.46.2.45.28.91.08.46,0,.47.08.93.08.46.04.47.12.93.08.46.05.47.14.93.08.46-.15.64.26.89.48.29.54,0,1.09-.07.54-.07.53-.17,1.07-.25.38-.05.69.19.99.4.3.22.55.45.62.83.07.38,0,.73-.22,1.02-.21.28-.49.62-.87.67-.54.07-.55.02-1.1.09-.54.07-.78-.35-1.09.09-.32.45.11.55.21,1.1.07.38-.13.68-.34.97-.21.28-.44.54-.82.6-.38.05-.79,0-1.08-.22s-.4-.59-.46-.97c-.1-.55.14-.7-.31-1.06-.41-.33-.46.14-.97.2-.51.07-.52-.02-1.03.05-.51.07-.52,0-1.02.06-.5.07-.49.14-1,.21-.5.07-.51.03-1.02.1-.5.07-.5.08-1.01.14-.5.07-.51.05-1.01.12-.5.07-.5.08-1.01.15-.5.07-.61-.17-.92.23-.29.37,0,.41.09.88.08.47.13.47.21.94.08.47,0,.48.09.96.08.47.13.47.21.94.08.47.07.47.16.95.08.47.05.48.13.95.07.38.03.75-.18,1.04-.21.28-.54.45-.93.51-.38.05-.82.06-1.12-.16s-.49-.63-.56-1.01c-.09-.47.01-.49-.07-.96s-.18-.46-.26-.94c-.08-.47-.02-.48-.11-.95-.08-.47-.13-.47-.21-.94-.08-.47-.07-.48-.15-.95-.08-.47.23-.66-.16-.95-.39-.29-.46.09-.93.16-.47.06-.48-.01-.95.05-.47.06-.45.14-.92.21s-.46.08-.93.15c-.46.06-.47.03-.93.1-.46.06-.48,0-.94.06-.38.05-.72-.06-1.02-.27s-.56-.49-.63-.88c-.07-.38.08-.72.29-1,.21-.28.48-.56.86-.61.47-.06.48,0,.94-.06s.45-.17.91-.24c.46-.06.5.1.96.04.46-.06.46-.07.93-.14.46-.06.45-.13.92-.2.46-.06.61.21.87-.16.27-.37-.15-.41-.24-.87-.08-.46-.07-.46-.15-.93-.08-.46.15-.49.07-.95-.08-.46-.12-.46-.2-.92-.08-.46-.25-.44-.33-.9-.08-.46.34-.71-.06-.98-.43-.29-.53.17-1.03.24q-.51.07-1.01.14c-.5.07-.5.08-1.01.15s-.5.08-1.01.15c-.5.07-.52,0-1.02.07-.5.07-.5.07-1.01.13-.5.07-.51.05-1.01.12-.5.07-.51.04-1.01.11-.5.07-.64-.17-.94.23-.29.39.01.45.1.93s.05.49.14.98c.09.49.05.49.14.98.09.49.22.47.31.96.09.49-.05.51.03,1,.09.49.13.48.22.97.09.49.04.49.13.98.09.49.28.46.37.95.09.49.08.49.17.98.09.49-.03.5.06.99.09.49.21.47.29.96.09.49-.07.51.01,1,.09.49.25.47.34.95.07.38-.12.75-.33,1.04-.21.28-.51.54-.89.59-.38.05-.77-.1-1.07-.31-.3-.22-.48-.55-.55-.93-.09-.49-.06-.49-.15-.98s-.13-.48-.22-.97c-.09-.49-.1-.49-.19-.98-.09-.49-.14-.48-.23-.97-.09-.49-.14-.48-.23-.97-.09-.49,0-.5-.09-.99-.09-.49,0-.5-.08-.99-.09-.49-.1-.49-.19-.98-.09-.49-.11-.49-.19-.97-.09-.49-.11-.49-.19-.97-.09-.49-.14-.48-.23-.97-.09-.49-.03-.49-.12-.98-.09-.49.22-.68-.2-.97-.43-.3-.51.05-1.01.12-.51.07-.51.04-1.02.11-.51.07-.51.05-1.01.12-.51.07-.51.06-1.01.12-.51.07-.51.04-1.02.11-.5.07-.48.19-.99.26-.5.07-.52-.03-1.02.04-.5.07-.49.17-.99.24-.5.07-.69-.28-.97.14-.3.45.16.49.25,1.03.1.54-.02.56.08,1.1.1.54.09.54.19,1.08q.1.54.19,1.08c.1.54.18.53.27,1.07.1.54-.02.55.08,1.09.07.38-.01.71-.22,1-.21.28-.48.57-.86.62-.38.05-.77-.11-1.06-.33-.3-.22-.5-.54-.57-.92-.1-.54-.09-.54-.19-1.08s-.18-.53-.28-1.07c-.1-.54-.03-.55-.12-1.09-.1-.54-.2-.53-.29-1.07s.04-.56-.06-1.1c-.1-.54.19-.71-.25-1.04-.44-.33-.51,0-1.04.08-.53.07-.51.15-1.04.22-.38.05-.73-.16-1.02-.38-.3-.22-.61-.48-.68-.86-.07-.38.13-.72.34-1,.21-.28.46-.65.84-.7.53-.07.56.12,1.09.05s.73.21,1.06-.2c.3-.37-.15-.48-.23-.96-.09-.48-.01-.49-.1-.97-.09-.48-.18-.46-.27-.94-.09-.48.09-.5,0-.98-.09-.48-.27-.45-.35-.93-.09-.48.04-.49-.05-.97-.09-.48-.09-.48-.18-.95-.09-.48-.07-.48-.16-.96-.09-.48-.06-.48-.15-.96-.09-.48.2-.72-.21-.99-.44-.3-.55.13-1.06.2-.52.07-.5.16-1.02.23-.51.07-.53-.02-1.04.05s-.52.06-1.03.13c-.51.07-.52.05-1.03.12-.51.07-.52.05-1.03.12-.51.07-.71-.22-1.02.18-.29.38.1.48.19.96.09.48.13.48.22.96.09.48.09.48.18.97.09.48-.02.5.07.98.09.48.14.48.23.96.09.48.11.48.2.96.07.38-.1.74-.3,1.02-.21.28-.5.54-.88.59-.38.05-.72-.16-1.01-.38s-.58-.47-.65-.85c-.09-.48-.03-.49-.12-.98-.09-.48-.08-.48-.17-.97-.09-.48-.17-.47-.26-.96-.09-.48-.11-.48-.19-.96s0-.5-.08-.98c-.09-.48.22-.69-.2-.97-.47-.31-.56.02-1.11.09-.55.07-.55.09-1.09.16-.55.07-.54.13-1.08.2-.55.07-.54.08-1.09.16-.38.05-.77-.06-1.06-.28s-.48-.55-.55-.93c-.07-.38,0-.74.2-1.03.21-.28.53-.46.92-.51.55-.07.54-.13,1.09-.2.55-.07.55-.04,1.1-.12.55-.07.55-.07,1.09-.14.55-.07.77.27,1.1-.15.31-.4-.11-.51-.2-1.02-.09-.51.06-.53-.04-1.03-.09-.51-.14-.5-.24-1.01-.09-.51-.23-.49-.32-.99-.09-.51-.06-.51-.15-1.02-.09-.51-.05-.51-.14-1.02-.09-.5-.12-.5-.22-1.01-.09-.51-.1-.5-.2-1.01-.09-.51-.1-.5-.19-1.01-.09-.51.22-.63-.2-.93-.43-.31-.47-.1-.99-.03-.52.07-.5.18-1.02.25-.52.07-.51.09-1.03.16-.52.07-.51.09-1.03.16-.52.07-.51.08-1.03.15-.52.07-.53,0-1.05.08-.52.07-.52.02-1.04.09-.38.05-.74-.03-1.04-.25-.3-.22-.43-.54-.49-.92-.07-.38,0-.68.21-.96.21-.28.44-.58.83-.64.52-.07.53-.02,1.05-.09.52-.07.52-.07,1.04-.14.52-.07.53-.03,1.04-.1.52-.07.51-.11,1.03-.18.52-.07.51-.12,1.02-.19.52-.07.5-.15,1.02-.22.52-.07.71.37,1.02-.03.29-.38.02-.47-.07-.95-.09-.48-.11-.48-.19-.96-.09-.48-.24-.46-.32-.94-.09-.48.08-.5,0-.98-.09-.48-.25-.46-.33-.94-.09-.48.09-.5,0-.98-.09-.48-.19-.47-.27-.95-.09-.48.06-.5-.03-.98-.09-.48-.21-.46-.3-.95-.09-.48.04-.5-.05-.98-.07-.38-.12-.75.08-1.04.21-.28.55-.47.94-.52.38-.05.72.11,1.02.33s.5.49.57.87c.09.48.22.46.3.95.09.48-.03.5.06.98.09.48.03.49.11.97.09.48.31.45.39.93.09.48-.04.5.04.98.09.48.13.47.22.96.09.48.09.48.17.96.09.48.04.49.13.97.09.48.12.48.2.96.09.48-.33.76.09,1.04.44.3.58-.07,1.1-.14.52-.07.51-.09,1.03-.16.51-.07.49-.18,1.01-.25.51-.07.52-.03,1.04-.1.51-.07.51-.09,1.03-.16.51-.07.52-.03,1.03-.1.51-.07.65.21.95-.2.3-.41.03-.46-.07-.97s-.13-.51-.22-1.02c-.09-.51-.09-.51-.18-1.02-.09-.51-.03-.52-.13-1.03-.09-.51-.1-.51-.19-1.02-.09-.51-.12-.51-.21-1.02-.09-.51-.09-.51-.19-1.02-.09-.51-.18-.5-.27-1.01-.09-.51-.01-.52-.11-1.03-.09-.51-.11-.51-.2-1.02-.09-.51-.1-.51-.2-1.02-.09-.51-.01-.52-.1-1.03-.09-.51-.19-.5-.28-1.01-.09-.51-.06-.51-.15-1.02-.09-.51.18-.63-.25-.95-.41-.31-.43.04-.92.11-.49.07-.49.08-.98.15-.49.07-.51-.05-1.01.02-.49.07-.5.03-.99.1-.49.07-.47.21-.96.27-.49.07-.5,0-.99.08-.49.07-.49.08-.98.15-.49.07-.49.09-.98.16-.49.07-.5,0-1,.07-.49.07-.49.06-.99.13-.38.05-.78.01-1.07-.2-.3-.22-.58-.56-.65-.94-.07-.38.2-.7.41-.99.21-.28.47-.45.85-.5.49-.07.48-.16.97-.22.49-.07.5-.05.99-.12.49-.07.48-.14.97-.21.49-.07.5-.02.99-.09.49-.07.49-.06.99-.13.49-.07.49-.08.98-.15.49-.07.49-.09.98-.15.49-.07.51,0,1-.06.49-.07.49-.1.98-.17.49-.07.65.22.94-.17.28-.38.03-.45-.05-.93-.09-.48-.13-.47-.22-.95-.09-.48-.07-.48-.16-.96-.09-.48-.07-.48-.16-.96-.09-.48-.08-.48-.16-.96-.09-.48-.24-.46-.33-.94-.09-.48.06-.5-.03-.98-.09-.48-.21-.46-.29-.94-.09-.48.01-.49-.07-.97-.07-.38.06-.7.27-.98.21-.28.45-.58.84-.63.38-.05.74.14,1.04.35.3.22.62.5.69.88.09.48-.02.49.07.97.09.48.06.48.14.96.09.48.09.48.18.96.09.48.04.49.12.97.09.48.1.48.19.96.09.48.3.45.38.93.09.48-.14.51-.06.99.09.48.17.47.25.95.09.48-.28.75.13,1.03.43.3.57-.07,1.08-.14.51-.07.47-.26.98-.32.51-.07.52.03,1.03-.03.5-.07.53.07,1.03,0s.49-.13,1-.2c.5-.07.49-.13,1-.2.5-.07.5-.08,1.01-.15.5-.07.51-.03,1.02-.09.5-.07.72.24,1.02-.16.29-.4-.11-.51-.2-1.01-.09-.5-.19-.48-.28-.98-.09-.5.1-.52.01-1.02-.09-.5-.2-.48-.29-.98-.09-.5-.16-.49-.25-.98-.09-.49-.08-.5-.17-.99-.09-.49-.04-.5-.13-1-.09-.5.07-.52-.02-1.01-.09-.5-.32-.46-.4-.96-.07-.38.15-.77.35-1.05.21-.28.52-.56.9-.61s.76.14,1.06.36c.3.22.51.53.58.91.09.5.16.49.25.99.09.5,0,.51.09,1.02.09.5.12.5.21,1,.09.5-.05.52.04,1.02.09.5.24.48.33.98.09.5.17.49.26.99.09.5,0,.51.08,1.01.09.5.09.5.18,1,.09.5.05.51.14,1.01.09.5.02.51.11,1.01.09.5.14.49.23.99.09.5.29.47.38.97.09.5-.12.53-.03,1.03.09.5.17.49.26.99.09.5.04.51.13,1.01.09.5.13.49.22.99.09.5.11.5.2.99.09.5-.02.51.07,1.01.09.5.11.5.19,1,.09.5.2.48.29.98.09.5.04.5.13,1,.09.5,0,.51.09,1.01.09.5.3.47.39.97.09.5-.08.52,0,1.02.09.5.3.47.39.97.09.5.02.51.11,1.01.09.5-.25.62.17.92.42.31.42-.08.93-.15.51-.07.54.1,1.04.04.5-.07.49-.13,1-.2.5-.07.52.04,1.03-.03.5-.07.47-.28.97-.35.5-.07.54.12,1.04.05.5-.07.47-.24.98-.31.5-.07.51-.02,1.02-.09.5-.07.81.36,1.08-.06.3-.46-.11-.6-.21-1.15-.1-.55-.15-.55-.25-1.1-.1-.55,0-.56-.1-1.11-.07-.38-.07-.73.14-1.01.21-.28.54-.39.92-.44.38-.05.74-.06,1.04.16s.54.54.61.92q.1.55.2,1.1c.1.55.11.55.21,1.1.1.55-.22.66.23,1.01.41.32.43,0,.93-.06.51-.07.5-.08,1.01-.15.5-.07.49-.13,1-.2.5-.07.5-.08,1.01-.14.5-.07.51-.02,1.02-.08.5-.07.51-.02,1.02-.09.5-.07.5-.07,1.01-.14.5-.07.5-.07,1.01-.13.5-.07.62.19.92-.21.29-.39.14-.44.05-.93-.09-.49-.28-.46-.37-.96-.09-.49-.06-.49-.15-.98-.09-.49-.07-.49-.16-.98-.09-.49-.03-.5-.12-.99-.09-.49-.26-.47-.35-.95-.09-.49-.03-.5-.12-.99-.09-.49.06-.51-.03-1-.09-.49-.21-.47-.3-.96-.09-.49-.06-.49-.15-.98-.09-.49-.09-.49-.18-.98-.09-.49.26-.71-.15-1-.42-.3-.52.06-1.02.12-.5.07-.49.09-.99.16-.5.07-.5.06-1,.13-.5.07-.48.14-.98.21-.5.07-.49.09-.99.16-.5.07-.51,0-1,.07-.5.07-.5.06-.99.12-.5.07-.5.02-1,.09-.5.07-.49.12-.98.18-.5.07-.5.03-1,.09-.38.05-.71-.08-1.01-.29s-.47-.49-.54-.87c-.07-.38-.06-.74.15-1.02.21-.28.52-.5.91-.56.5-.07.49-.1.99-.16.5-.07.51.01,1.01-.06.5-.07.5-.06,1-.13.5-.07.51-.02,1-.08.5-.07.48-.15.98-.22.5-.07.49-.09.99-.16.5-.07.48-.14.98-.21.5-.07.53.09,1.02.02.5-.07.47-.21.97-.27s.76.37,1.04-.03c.29-.44-.12-.55-.21-1.08-.1-.53.02-.55-.07-1.07-.09-.53-.15-.52-.25-1.05-.09-.53-.17-.52-.27-1.05-.09-.53-.17-.52-.26-1.05-.09-.53.37-.79-.07-1.12-.43-.32-.55.18-1.06.25-.52.07-.51.11-1.03.18-.52.07-.55-.14-1.07-.07-.52.07-.49.23-1,.3-.52.07-.54-.07-1.06,0-.52.07-.49.23-1,.3-.51.07-.52.04-1.03.11-.52.07-.55-.1-1.06-.03-.52.07-.51.09-1.03.16-.51.07-.48.29-.99.36-.52.07-.55-.13-1.07-.06-.51.07-.49.19-1.01.26-.52.07-.54-.05-1.05.02-.51.07-.5.14-1.02.21-.52.07-.49.19-1.01.26-.51.07-.55-.12-1.06-.05-.51.07-.51.08-1.03.15-.51.07-.5.15-1.01.22-.38.05-.74-.09-1.04-.31s-.49-.52-.56-.9c-.07-.38-.04-.76.17-1.04.21-.28.57-.36.95-.41.52-.07.51-.09,1.03-.16.52-.07.49-.22,1.01-.29.52-.07.53,0,1.04-.07.52-.07.52-.04,1.04-.11.52-.07.53-.02,1.04-.09.51-.07.5-.13,1.02-.2.51-.07.51-.12,1.02-.19.52-.07.52-.03,1.04-.1.52-.07.51-.08,1.03-.15.52-.07.51-.08,1.03-.15s.5-.14,1.02-.21c.51-.07.53.02,1.05-.05.52-.07.51-.08,1.03-.15.51-.07.53.03,1.05-.04.52-.07.5-.16,1.01-.23.51-.07.52-.03,1.04-.1.51-.07.51-.09,1.03-.16.51-.07.64.15.96-.25.29-.37-.06-.42-.14-.89s.06-.49-.02-.97c-.08-.47-.17-.46-.26-.93-.08-.47-.05-.48-.13-.95-.08-.47-.25-.45-.34-.92-.07-.38.15-.74.35-1.03.21-.28.51-.47.89-.52.38-.05.74.03,1.04.25s.56.52.63.9c.09.47-.06.49.03.97s.29.45.37.92c.08.47,0,.49.08.96.08.47.11.47.19.94.08.47-.31.75.1,1.02.46.3.58-.09,1.11-.17.53-.07.52-.11,1.05-.18.53-.07.54-.02,1.07-.1.53-.07.52-.12,1.05-.19.53-.07.52-.1,1.05-.18.53-.07.55.03,1.07-.04.53-.07.52-.11,1.05-.19.53-.07.53-.07,1.06-.14.53-.07.52-.14,1.05-.21.38-.05.76.09,1.05.3s.4.55.47.93c.07.38.05.7-.16.99-.21.28-.49.5-.87.56-.53.07-.54.02-1.07.09-.53.07-.51.17-1.04.25-.53.07-.54-.01-1.07.06-.53.07-.51.17-1.04.24-.53.07-.54.02-1.07.09-.53.07-.52.1-1.05.17-.53.07-.55-.03-1.07.04-.53.07-.53.06-1.06.13s-.77-.21-1.08.21c-.31.43.23.54.32,1.07.09.53,0,.54.1,1.07.09.53.03.54.12,1.07.09.53.13.52.23,1.05s.08.53.17,1.06c.09.53-.19.7.25,1.03.43.32.51,0,1.03-.06.52-.07.5-.19,1.01-.26.52-.07.53,0,1.05-.06.52-.07.52-.03,1.04-.1s.51-.1,1.03-.17c.52-.07.52-.04,1.04-.11.52-.07.5-.14,1.02-.21.52-.07.52-.05,1.04-.12.52-.07.51-.12,1.02-.19.52-.07.52-.04,1.04-.11.52-.07.51-.13,1.02-.2.52-.07.52-.05,1.04-.12.52-.07.53-.02,1.04-.09.52-.07.51-.12,1.02-.19.52-.07.52-.04,1.04-.11.52-.07.52-.07,1.03-.14.52-.07.5-.14,1.02-.21.38-.05.74.2,1.03.42s.6.48.67.86c.07.38-.13.71-.33.99-.21.28-.47.51-.85.57-.51.07-.5.11-1.01.18-.51.07-.53-.02-1.04.05-.51.07-.5.14-1.01.21s-.52.03-1.03.1c-.51.07-.5.14-1.01.21-.51.07-.5.13-1.01.2-.51.07-.67-.31-.97.09-.29.39.15.43.24.92.09.49,0,.5.08,1,.09.49.06.49.15.98.09.49.02.5.11.99.09.49.08.49.17.98.09.49.12.48.21.97.09.49.16.48.24.97.09.49.05.5.13.99.09.49.16.48.25.97.09.49.07.49.16.98.09.49,0,.5.08.99.09.49-.15.62.26.92.42.3.48.11.98.05.5-.07.47-.21.97-.28.5-.07.5-.06,1-.13.5-.07.52.06,1.02,0s.47-.25.97-.32c.5-.07.52.07,1.02,0,.5-.07.48-.18.98-.25.5-.07.5-.05,1-.11.5-.07.49-.11.99-.18.5-.07.52.03,1.02-.03.5-.07.51.02,1.01-.05.38-.05.81-.15,1.1.06.3.22.48.63.55,1.01.07.38,0,.8-.2,1.08s-.59.43-.98.48c-.5.07-.5.05-1,.12-.5.07-.49.12-.99.19-.5.07-.49.15-.99.21-.5.07-.51-.01-1.01.06-.5.07-.51,0-1.01.06-.5.07-.49.11-.99.18-.5.07-.47.21-.97.28-.5.07-.54-.16-1.04-.09-.5.07-.49.11-.99.18-.5.07-.5.07-1,.14-.5.07-.74-.25-1.03.15-.29.41-.01.55.08,1.06.09.51.2.49.29,1,.09.51.23.49.33.99.09.51-.03.52.06,1.03s.11.5.2,1.01c.09.51.16.5.25,1,.09.5-.02.52.07,1.02.09.51.12.5.21,1.01.09.51.18.49.28,1,.09.51-.37.77.05,1.08.42.31.54-.15,1.05-.22.51-.07.51-.03,1.02-.1.5-.07.5-.08,1.01-.15s.53.06,1.03-.01c.5-.07.49-.14,1-.21.5-.07.5-.11,1-.18.5-.07.51-.02,1.01-.09.5-.07.51-.06,1.01-.12.38-.05.73,0,1.03.22.3.22.56.52.63.9.07.38-.08.73-.29,1.02-.21.28-.5.51-.88.57Z"/>
        <path class="st1" d="M494.51,340.16c-.09-.48-.22-.46-.3-.93-.09-.48-.09-.48-.17-.95-.09-.48.08-.5,0-.98-.09-.48.12-.7-.29-.98-.43-.3-.55,0-1.06.07-.51.07-.48.19-.99.26-.5.07-.49.12-1,.19-.5.07-.51.06-1.01.13-.5.07-.51.05-1.01.12-.5.07-.51.05-1.01.12-.5.07-.5.07-1.01.14-.5.07-.51.01-1.02.08-.5.07-.69-.23-.99.16-.29.38,0,.48.09.96.09.48.21.46.3.94.09.48,0,.49.09.97.09.48.06.48.14.96.09.48.15.47.23.95.09.48.14.47.22.95.09.48.04.48.13.96.09.48.11.47.19.95.09.48.06.48.14.96.09.48-.27.7.14.98.43.3.51-.18,1.02-.24.51-.07.52.02,1.03-.05.5-.07.51-.02,1.02-.09.5-.07.51-.04,1.01-.11.5-.07.49-.17.99-.24.5-.07.52.02,1.02-.05.5-.07.49-.17.99-.24.5-.07.53.09,1.04.02.5-.07.71.16,1.01-.24.29-.38.05-.5-.16-.99-.19-.45,0-.48-.09-.96-.09-.48-.2-.46-.29-.94-.09-.48-.12-.47-.21-.95-.09-.48-.04-.48-.12-.96-.09-.48.02-.49-.07-.97Z"/>
      </g>
      <path class="st0" d="M29.36,350.24l9.5,12.28"/>
    </g>
  </g>
</svg>