<?xml version="1.0" encoding="UTF-8"?>
<svg id="_レイヤー_1" data-name="レイヤー_1" xmlns="http://www.w3.org/2000/svg" version="1.1" viewBox="0 0 286.77 119.26">
  <!-- Generator: Adobe Illustrator 30.3.0, SVG Export Plug-In . SVG Version: 2.1.3 Build 182)  -->
  <defs>
    <style>
      .st0 {
        fill: #5a1318;
      }

      .st1 {
        fill: #fbe2ed;
      }
    </style>
  </defs>
  <path class="st0" d="M285.87,52.68c0-27.67-63.74-50.09-142.37-50.09S1.13,25.01,1.13,52.68s63.74,50.09,142.37,50.09c24.64,0,47.95-1.58,68.03-6.08,5.41-1.21,7.51,1.43,7.78,2.95.87,4.99-1.89,11.24-5.71,15.9-1.86,2.28-.11,3.87,2.45,2.79,12.86-5.41,19.29-15.86,21.32-23.95.38-1.52,1.28-4.34,4.13-5.38,27.05-9.91,44.36-22.03,44.36-36.33Z"/>
  <path class="st1" d="M143.5,100.26c-74.26,0-134.46-21.3-134.46-47.58S69.24,5.09,143.5,5.09s134.46,21.3,134.46,47.58c0,13.22-15.27,25.07-39.83,33.8-2.91,1.04-3.67,3.67-3.94,5.18-1.29,7.29-6.84,18.48-15.99,22.83,9.23-19.19,3.08-23.17-4.05-21.32-20.34,5.28-44.73,7.09-70.65,7.09Z"/>
</svg>