<?xml version="1.0" encoding="UTF-8"?>
<svg id="_レイヤー_1" data-name="レイヤー_1" xmlns="http://www.w3.org/2000/svg" version="1.1" viewBox="0 0 308.9 113.18">
  <!-- Generator: Adobe Illustrator 30.3.0, SVG Export Plug-In . SVG Version: 2.1.3 Build 182)  -->
  <defs>
    <style>
      .st0 {
        fill: #004d1b;
      }
    </style>
  </defs>
  <path class="st0" d="M219,52.09c10.94,4.5,24.01-.09,29.42-9.33,3.41-5.82,2.22-7.63,2.71-10.12.63-3.24,2.81-4.58,4.92-3.52,2.48,1.25,1.39,5.85.59,8.1-3.71,10.45-17.94,25.3-35.83,19.73-.53-.17-.99.08-1.05.46-1.3,7.25-6.36,21.49-13.79,24.58-1.92.8-4.27.45-5.39-1.02-1.33-1.75-.47-4.93,2.55-5.62,2.16-.49,5.24.42,6.92-2.74,2.64-4.98,5.38-12.65,6.24-18.74.21-1.46,1.53-2.26,2.73-1.76Z"/>
  <path class="st0" d="M223.63,66.95c-1.36-.06-2.63-1.34-1.9-3.28.32-.84,1.43-1.34,2.08-1.31,5.43.27,11.63-.82,16.01-2.79.58-.26,1.95-.15,2.48.61,1.33,1.92.26,3.18-.39,3.47-5.06,2.33-12.05,3.59-18.27,3.29Z"/>
  <path class="st0" d="M243.78,82.31c-1.66-.69-4.74-4-5.87-6.6,3.1-.72,6.04-1.72,8.73-3.03,1-.49,2.71-2.18,1.65-3.65-1.05-1.46-3.23-.66-4.36-.14-5.93,2.72-13.13,3.94-20.82,3.41-1.49-.1-2.85.54-3.16,2.05-.31,1.51,1.31,2.42,2.09,2.48.29.02.59.04.88.05-.67,2.34-1.92,6.65-2.3,8.05-.54,1.95,1.42,3.77,5.27,3.57,3.85-.2,8-.63,8.17-3.27.11-1.81-2.44-2.81-3.92-2.44-1.48.37-2.49,1.24-3.33,1.64-1.07.5-2.02-.12-1.78-.95.45-1.58,1.36-4.75,1.86-6.5,2.68-.02,5.29-.26,7.81-.66,1.79,4.29,4.82,9.05,7.6,9.99,3.14,1.06,8.16.39,7.87-1.63-.46-3.16-4.48-1.58-6.42-2.38Z"/>
  <path class="st0" d="M247.67,77.57c-.06,1.32-1.19,2.34-2.51,2.28-1.32-.06-2.34-1.19-2.28-2.51.06-1.32,1.19-2.34,2.51-2.28,1.32.06,2.34,1.19,2.28,2.51Z"/>
  <path class="st0" d="M178.55,64.65c0,2-1.62,3.63-3.63,3.63s-3.63-1.62-3.63-3.63,1.62-3.63,3.63-3.63,3.63,1.62,3.63,3.63Z"/>
  <path class="st0" d="M297.63,67.21c0,1.32-1.07,2.39-2.39,2.39s-2.39-1.07-2.39-2.39,1.07-2.39,2.39-2.39,2.39,1.07,2.39,2.39Z"/>
  <path class="st0" d="M303.64,39.57c-1.89-4.21-5.86-6.87-10.06-6.93-4.6-.07-20.28,2.23-23.05,2.9-2.76.67-7.49,3.46-8.4,6.06-2.29,6.54-2.77,30.82,1.01,40.33,2.01,5.06,6.32,5.97,10.17,6.51,3.84.54,18.34-.29,23.87-1.84,5.53-1.55,8.15-6.01,9.3-9.25,3.75-10.57-.62-32.83-2.83-37.77ZM303.57,73.3c-.54,4.18-2.97,7.89-8.16,9.2-5.19,1.32-19.96,3.14-23.4,1.45-3.44-1.69-5.33-4.26-6.54-9.28-1.21-5.02-1.06-23.24-.18-27.15.88-3.91,3.48-6.46,6.72-7.54,4.99-1.66,16.86-3.51,20.97-2.56,4.11.94,6.81,3.3,8.43,7.15,1.62,3.84,2.7,24.55,2.16,28.73Z"/>
  <path class="st0" d="M272.8,53.5c5.41-1.18,14.79-2.46,19.4-1.9,1.97.24,3.73-.3,3.7-1.68-.04-1.7-2.02-2.54-3.75-2.46s-8.72,1.08-8.72,1.08l-.37-2.66s4.47-.16,5.49-.19c1.15-.03,2.81-.56,2.6-1.99-.19-1.24-1.49-1.74-3.07-1.65-1.58.1-5.25.4-5.25.4,0,0,.07-1.01-.04-1.68-.11-.67-1.28-1.35-2.15-1.21-.87.14-2.21,1.19-1.49,3.23,0,0-3.22.35-4.61.64-1.39.29-1.96,1.31-1.76,2.09.2.77.97,1.5,2.76,1.35,2.27-.2,4.3-.66,4.3-.66l.48,2.74s-6.25.62-8.35,1.04c-2.11.41-2.63,1.82-2.41,2.54.3.99,1.24,1.4,3.24.96Z"/>
  <path class="st0" d="M283.11,53.28c-5.61,0-10.17,3.29-10.17,7.34s4.55,7.34,10.17,7.34,10.17-3.29,10.17-7.34-4.55-7.34-10.17-7.34ZM283.11,65.8c-3.14,0-5.68-2.32-5.68-5.18s2.54-5.18,5.68-5.18,5.68,2.32,5.68,5.18-2.54,5.18-5.68,5.18Z"/>
  <path class="st0" d="M280.97,65.85s-1.21,12.38-1.4,13.9c-.18,1.52.79,3.33,2.38,3.3,1.41-.03,2.99-.42,3.24-2.97.24-2.55-.5-13.62-.5-13.62l-3.71-.61Z"/>
  <path class="st0" d="M286.16,71.58c1.61,2.84,5.72,6.87,9.53,7.43,1.55.23,3.39.09,3.76-1.58.53-2.37-2.4-2.08-5.86-3.69-1.49-.69-3.27-1.78-5.49-4.37-.65-.76-3,.35-1.95,2.22Z"/>
  <path class="st0" d="M277.17,68.47c-1.56,1.25-3.62,2.79-4.71,3.06-1.52.36-2.53-.15-3.59-.09-1.06.06-2.01,1.82-1.76,2.85.43,1.8,2.73,2.32,5.82,1.59,2.23-.52,4.71-2.55,6.27-4.77.97-1.39-.57-3.79-2.03-2.63Z"/>
  <path class="st0" d="M228.06,11.22c-.92-3.24-1.55-5.48-1.64-5.8-.66-2.35-2.19-3.96-4.28-3.2-2.06.75-1.99,3.38-1.46,5.03.09.29.56,1.55,1.26,3.42-2.93.1-5.73.74-8.24,1.85-.71-1.93-1.19-3.23-1.28-3.48-.84-2.29-2.48-3.79-4.5-2.87-2,.9-1.73,3.53-1.07,5.12.15.36.89,1.99,1.96,4.31-3.06,2.63-5.25,6.2-6.01,10.51-1.94,10.84,6.05,20.47,17.66,22.54,11.61,2.07,22.44-4.2,24.37-15.04,1.89-10.56-5.66-19.99-16.78-22.38ZM238.03,21.12c-1.98.34-4.28.85-6.74,1.47-.8-2.79-1.58-5.53-2.28-7.99,3.79,1.19,6.92,3.53,9.02,6.51ZM223.12,13.77c1.08,2.87,2.41,6.4,3.77,10.01-2.7.76-5.47,1.61-8.13,2.48-1.3-3.55-2.65-7.21-3.76-10.25,2.4-1.36,5.18-2.16,8.12-2.24ZM207.42,26.46c.47-2.61,1.61-4.95,3.24-6.88,1.17,2.52,2.48,5.36,3.77,8.13-2.72.94-5.18,1.86-7.15,2.65-.12-1.28-.09-2.58.15-3.9ZM240.63,32.39c-1.52,8.5-10.18,14.06-19.35,12.42-6.08-1.09-10.84-5.07-12.93-10.11,2.07-.86,4.85-1.9,7.95-2.96,1.47,3.17,2.77,5.96,3.57,7.68.51,1.1,1.68,1.73,2.48,1.39,1.21-.53,1.21-1.51.77-2.71-.65-1.76-1.67-4.53-2.82-7.68,2.68-.87,5.47-1.72,8.16-2.48,1.03,2.74,2.02,5.39,2.87,7.71.48,1.29,1.55,1.8,2.48,1.47.97-.35,1.27-1.51.9-2.79-.67-2.26-1.41-4.83-2.17-7.48,2.9-.73,5.53-1.29,7.6-1.57.73,2.25.95,4.67.51,7.12Z"/>
  <path class="st0" d="M121.02,45.25c-1.46.02-2.13.87-1.19,1.66.95.79.12,2.46-2.51,2.81-2.19.3-4.83.7-7.58,1.14.37-6.11.79-11.02,1.1-13.12.38-2.67-1.19-3.86-2.54-3.88-1.84-.03-2.79,1.57-2.77,3.1.07,4.38.2,8.74-.03,14.59-6.98,1.16-13.56,2.33-14.39,2.45-2.08.3-4.7,1.89-4.06,3.95.6,1.91,3.5,2.3,5.24,1.73.76-.25,6.55-1.8,12.97-3.51-.4,6.33-1.22,14.33-2.82,25.32-.54,3.75.8,5.89,3.22,5.88,2.23,0,3.68-1.74,3.51-5.88-.34-7.95-.08-17.92.34-26.45,7-1.86,13.61-3.61,14.27-3.81,5.44-1.62.57-6.03-2.77-5.98Z"/>
  <path class="st0" d="M192.73,43.53c-.42.06-2.66.46-5.56.99-.21-3.43-.36-5.94-.41-6.52-.17-2.11-1.26-4.22-3.17-4-1.91.23-2.36,2.77-2.09,4.65.23,1.59.55,3.96.91,6.74-5.19.95-10.59,1.93-11.66,2.08-2.08.3-4.7,1.89-4.06,3.94.6,1.91,3.5,2.3,5.24,1.73.89-.29,6.04-1.8,11.04-3.27,1.2,9.63,2.49,21.31,2.24,23.59-.47,4.18-3.48,6.08-4.86,5.83-2.74-.51-4.86-3.59-7.18-.82-2.32,2.77,1.04,8.54,7.23,7.69,8.09-1.1,8.95-8.71,8.5-14.12-.25-3.11-.95-14.65-1.49-23.47,2.91-.85,5.2-1.52,5.66-1.66,2.71-.82,2.06-3.73-.34-3.39Z"/>
  <path class="st0" d="M87.26,80.02c-2.88,2.96-5.86-.07-4.22-2.65,1.65-2.58,14.24-13.87,17.3-16.84,1.8-1.75,3.53,1.09,2.28,2.25-2.07,1.91-12.55,14.35-15.37,17.24Z"/>
  <path class="st0" d="M112.03,62.27c1.64,3.3,8.63,15.38,10.65,17.26,2.02,1.89,4.73,2.79,7.28,2.21,3.87-.87,5.29-4.19,4.05-6.6-1.09-2.14-4.01-2.76-6.15-1.33-.32.21-2.03,1.62-3.33-.09-2.77-3.67-8.51-12.26-9.42-13.61-1.19-1.76-4.11.1-3.09,2.15Z"/>
  <path class="st0" d="M161.92,44.67c-.53.07-2.84.32-5.51.61.27-3.69.55-6.56.76-8.03.38-2.67-1.19-3.86-2.54-3.88-1.84-.03-2.79,1.57-2.77,3.1.04,2.96.12,5.9.09,9.3-2.37.26-4.42.49-5.19.6-2.08.3-3.88,1.6-3.56,3.73.34,2.27,3,2.52,4.74,1.94.55-.18,2.05-.61,3.89-1.11-.26,7-1.04,16.13-3.06,30.06-.54,3.75.8,5.89,3.22,5.88,2.23,0,3.68-1.74,3.51-5.88-.4-9.5.04-21.88.61-31.23,2.87-.78,5.52-1.5,6.15-1.7,2.71-.82,2.06-3.73-.34-3.39Z"/>
  <path class="st0" d="M146.77,57.3c-1.47,1.76-3.84,4.91-5.86,8.41-1.06,1.84-.39,3.67.66,4.32,1.23.76,3.39.67,4.48-1.96,1.47-3.57,3.1-8.41,3.5-9.62.49-1.5-1.36-2.85-2.78-1.15Z"/>
  <path class="st0" d="M166.43,69.86c-.68-1.61-3.35-7.8-4.73-10.5-.88-1.72-2.37-1.77-3.11-1.26-.73.51-1.52,2.17-.08,4.27,1.67,2.43,5.58,7.89,6.18,8.66.73.94,2.34.26,1.74-1.18Z"/>
  <path class="st0" d="M38.07,91.92c-19.86,0-36.02-16.16-36.02-36.02S18.21,19.88,38.07,19.88s36.02,16.16,36.02,36.02-16.16,36.02-36.02,36.02ZM38.07,24.57c-17.28,0-31.33,14.05-31.33,31.33s14.05,31.33,31.33,31.33,31.33-14.05,31.33-31.33-14.05-31.33-31.33-31.33Z"/>
  <path class="st0" d="M59.17,53.01c-.29-1-1.21-1.69-2.25-1.69h-29.08l4.77-12.6h20.7c1.29,0,2.34-1.05,2.34-2.34s-1.05-2.34-2.34-2.34h-31.17c-1.29,0-2.34,1.05-2.34,2.34s1.05,2.34,2.34,2.34h5.46l-11.06,29.22c-.46,1.21.15,2.56,1.36,3.02.27.1.55.15.83.15.95,0,1.84-.58,2.19-1.52l5.15-13.59h29.01c1.28,6.53-.96,13.16-5.96,17.28-5.4,4.45-12.74,4.99-19.63,1.44-1.15-.59-2.56-.14-3.16,1.01-.59,1.15-.14,2.56,1.01,3.16,3.73,1.92,7.57,2.87,11.29,2.87,4.88,0,9.55-1.63,13.46-4.86,6.88-5.67,9.65-15.05,7.07-23.9Z"/>
  <path class="st0" d="M65.88,16.31c1.23-.67,2.7-1.41,4.4-2.21l.36-.17-.74-1.53-.35.16c-1.23.56-3.11,1.54-5.59,2.92-2.5,1.4-4.48,2.57-5.9,3.49l-.32.21.85,1.44.35-.22c1.96-1.22,3.28-2.01,3.95-2.27,1.07-.43,2.53-.69,3.09-.04.89,1.02-.37,2.15-1.76,3.54-1.52,1.51-.82,3.08.07,3.84.63.54,1.31.81,2.06.81.53,0,1.09-.14,1.67-.41.89-.42,2-1.29,3.39-2.65l.23-.22-.88-1.44-.36.35c-1.28,1.25-2.32,2.08-3.09,2.47-.79.37-1.42.34-1.91-.08-.62-.54-.3-1.19.11-1.67.2-.23.52-.56.95-.99,2.29-2.31,2.03-4.6-.56-5.34Z"/>
  <path class="st0" d="M18.85,18.63c0-.18-.09-1.69-.09-1.69-1.84.08-4.27.82-4.27.82l-1.42-1.9,3.75-2.94-.96-1.32-3.77,2.93-.86-1.17,3.79-2.91-.96-1.33-3.84,2.86-1.14-1.52-1.36,1.02,1.13,1.51-4.1,3.07.98,1.35,4.07-3.07.95,1.25-4.14,3.03.95,1.3,4.2-3.09,1.2,1.57c-.3.1-1.36.73-1.9,1.14-1.51,1.16-2,2.92-1.21,4.06.68.98,2.52,1.23,4.14.08,2.15-1.53,2.16-3.64,1.53-4.53.36-.09,2.03-.54,3.35-.54ZM13.35,22.19c-.84.73-1.81,1-2.17.59-.35-.41.05-1.33.89-2.06.84-.73,1.81-1,2.17-.59.35.41-.05,1.33-.89,2.06Z"/>
  <path class="st0" d="M55.85,7.89l.42-1.58-4.65-1.17.46-1.85-1.66-.41-.45,1.83-4.97-1.24-.43,1.61,4.95,1.21-.37,1.53-4.97-1.29-.41,1.56,5.04,1.3-.46,1.92c-.26-.17-1.43-.6-2.09-.75-1.85-.43-3.53.3-3.91,1.63-.33,1.15.64,2.73,2.56,3.26,2.54.7,4.19-.62,4.48-1.68.3.22,1.7,1.24,2.54,2.26.14-.11,1.25-1.14,1.25-1.14-1.22-1.38-3.34-2.79-3.34-2.79l.57-2.3,4.65,1.05.41-1.58-4.65-1.07.36-1.41,4.65,1.1ZM45.7,14.01c-1.1-.19-1.92-.78-1.83-1.31s1.06-.81,2.16-.61c1.1.19,1.92.78,1.83,1.31-.09.53-1.06.81-2.16.61Z"/>
  <path class="st0" d="M35.79,10.14c-.22-1.15-.86-2.01-1.91-2.55-.96-.49-2.05-.62-3.25-.4-.48.09-.96.22-1.42.39,1.22-1.55,2.19-2.75,2.88-3.59.24-.14.63-.38.56-.77-.04-.23-.23-.44-1.13-.98l-.24-.14-.43.34c-.93.2-2.95.65-6.05,1.35l-.4.09.4,1.63.37-.07c.76-.14,2.26-.5,4.57-1.1-2.19,2.8-3.88,4.93-5.02,6.35l1.43.94c.43-.55,1.02-1.08,1.74-1.58.96-.65,1.97-1.08,2.98-1.28.84-.16,1.58-.08,2.19.22.64.33,1.02.82,1.14,1.5.22,1.14-.27,2.03-1.47,2.72-.49-.57-1.09-1.04-1.79-1.39-.91-.46-1.8-.6-2.64-.44-.63.12-1.14.4-1.5.83-.41.45-.57.99-.45,1.57.11.6.52,1.39,1.78,1.72.4.11.83.16,1.31.16.45,0,.92-.05,1.43-.14,1.53-.29,2.75-.83,3.64-1.62,1.14-.99,1.57-2.25,1.29-3.74ZM29.01,14.13c-.59-.09-1.07-.39-1.08-.8-.01-.49.68-.86,1.43-.71.97.2,1.35.72,1.2,1.12-.14.37-.95.49-1.55.4Z"/>
  <g>
    <path class="st0" d="M8.41,112.68v-5.01l-1.64,3.26h-1.13l-1.65-3.26v5.01h-1.68v-8.59h1.65l2.24,4.64,2.23-4.64h1.65v8.59h-1.68Z"/>
    <path class="st0" d="M26.14,112.68l-.51-1.52h-3.05l-.52,1.52h-1.75l3.12-8.59h1.32l3.14,8.59h-1.75ZM24.13,106.62l-1.09,3.12h2.14l-1.05-3.12Z"/>
    <path class="st0" d="M42.67,112.68l-1.68-3.43h-1.21v3.43h-1.68v-8.59h3.37c1.75,0,2.79,1.19,2.79,2.63,0,1.21-.74,1.95-1.57,2.26l1.92,3.7h-1.94ZM41.37,105.58h-1.58v2.27h1.58c.74,0,1.22-.47,1.22-1.13s-.48-1.13-1.22-1.13Z"/>
    <path class="st0" d="M58.19,112.75c-1.76,0-3.16-1.19-3.16-3.02v-5.65h1.68v5.59c0,.99.58,1.58,1.48,1.58s1.5-.59,1.5-1.58v-5.59h1.66v5.65c0,1.82-1.4,3.02-3.16,3.02Z"/>
    <path class="st0" d="M78.49,112.68v-5.01l-1.64,3.26h-1.13l-1.65-3.26v5.01h-1.68v-8.59h1.65l2.24,4.64,2.23-4.64h1.65v8.59h-1.68Z"/>
    <path class="st0" d="M96.21,112.68l-.51-1.52h-3.05l-.52,1.52h-1.75l3.12-8.59h1.32l3.14,8.59h-1.75ZM94.21,106.62l-1.09,3.12h2.14l-1.05-3.12Z"/>
    <path class="st0" d="M113.27,112.68l-3.4-5.27v5.27h-1.68v-8.59h1.5l3.4,5.26v-5.26h1.68v8.59h-1.5Z"/>
    <path class="st0" d="M142.89,112.68l-2.21-3.91-1.11,1.33v2.58h-1.68v-8.59h1.68v3.74l3.03-3.74h2.04l-2.85,3.41,3.05,5.18h-1.95Z"/>
    <path class="st0" d="M155.08,112.68v-8.59h1.68v8.59h-1.68Z"/>
    <path class="st0" d="M174.02,112.68v-5.01l-1.64,3.26h-1.13l-1.65-3.26v5.01h-1.68v-8.59h1.65l2.24,4.64,2.23-4.64h1.65v8.59h-1.68Z"/>
    <path class="st0" d="M189.9,112.75c-1.76,0-3.16-1.19-3.16-3.02v-5.65h1.68v5.59c0,.99.58,1.58,1.48,1.58s1.49-.59,1.49-1.58v-5.59h1.67v5.65c0,1.82-1.4,3.02-3.16,3.02Z"/>
    <path class="st0" d="M208.65,112.68l-1.68-3.43h-1.21v3.43h-1.68v-8.59h3.37c1.75,0,2.79,1.19,2.79,2.63,0,1.21-.73,1.95-1.57,2.26l1.92,3.7h-1.94ZM207.35,105.58h-1.58v2.27h1.58c.74,0,1.22-.47,1.22-1.13s-.48-1.13-1.22-1.13Z"/>
    <path class="st0" d="M226.03,112.68l-.51-1.52h-3.05l-.52,1.52h-1.75l3.13-8.59h1.31l3.14,8.59h-1.75ZM224.03,106.62l-1.09,3.12h2.14l-1.05-3.12Z"/>
    <path class="st0" d="M251.64,105.58v2.11h3.39v1.5h-3.39v3.49h-1.68v-8.59h5.66v1.5h-3.98Z"/>
    <path class="st0" d="M271.13,112.68l-.51-1.52h-3.05l-.52,1.52h-1.75l3.13-8.59h1.31l3.14,8.59h-1.75ZM269.13,106.62l-1.09,3.12h2.14l-1.05-3.12Z"/>
    <path class="st0" d="M287.67,112.68l-1.68-3.43h-1.21v3.43h-1.68v-8.59h3.37c1.75,0,2.79,1.19,2.79,2.63,0,1.21-.73,1.95-1.57,2.26l1.92,3.7h-1.94ZM286.36,105.58h-1.58v2.27h1.58c.74,0,1.22-.47,1.22-1.13s-.48-1.13-1.22-1.13Z"/>
    <path class="st0" d="M306.26,112.68v-5.01l-1.64,3.26h-1.13l-1.65-3.26v5.01h-1.68v-8.59h1.65l2.24,4.64,2.23-4.64h1.65v8.59h-1.68Z"/>
  </g>
</svg>