<?xml version="1.0" encoding="UTF-8"?>
<svg id="_レイヤー_1" data-name=" レイヤー 1" xmlns="http://www.w3.org/2000/svg" viewBox="0 0 217.85 84.77">
  <defs>
    <style>
      .cls-1 {
        fill: #fff;
      }
    </style>
  </defs>
  <g>
    <path class="cls-1" d="M153.72,35.47c7.75,3.19,17.02-.06,20.85-6.61,2.41-4.13,1.57-5.41,1.92-7.17.45-2.3,1.99-3.25,3.48-2.5,1.76.88.98,4.14.42,5.74-2.63,7.4-12.71,17.92-25.39,13.98-.38-.12-.7.05-.75.32-.92,5.14-4.5,15.22-9.77,17.41-1.36.57-3.03.32-3.82-.72-.95-1.24-.33-3.49,1.81-3.98,1.53-.35,3.71.3,4.9-1.94,1.87-3.53,3.81-8.96,4.42-13.28.15-1.03,1.08-1.6,1.93-1.25h0Z"/>
    <path class="cls-1" d="M156.99,46c-.96-.05-1.86-.95-1.35-2.32.22-.6,1.01-.95,1.47-.93,3.84.19,8.24-.58,11.34-1.98.41-.19,1.38-.1,1.76.43.94,1.36.18,2.25-.28,2.46-3.59,1.65-8.53,2.54-12.95,2.33h.01Z"/>
    <path class="cls-1" d="M171.27,56.89c-1.17-.49-3.36-2.83-4.16-4.68,2.2-.51,4.28-1.22,6.19-2.15.71-.34,1.92-1.55,1.17-2.59s-2.29-.47-3.09-.1c-4.2,1.93-9.3,2.79-14.75,2.42-1.05-.07-2.02.38-2.24,1.45s.93,1.71,1.48,1.75c.21.02.42.03.62.04-.48,1.66-1.36,4.71-1.63,5.7-.38,1.38,1.01,2.67,3.74,2.53,2.73-.14,5.67-.45,5.79-2.31.08-1.28-1.73-1.99-2.78-1.73-1.05.26-1.76.88-2.36,1.16-.76.36-1.43-.08-1.26-.67.32-1.12.96-3.37,1.32-4.61,1.9-.02,3.75-.18,5.53-.47,1.27,3.04,3.42,6.41,5.39,7.08,2.22.75,5.78.28,5.58-1.15-.32-2.24-3.18-1.12-4.55-1.69v.02Z"/>
    <path class="cls-1" d="M174.03,53.52c-.04.94-.84,1.66-1.78,1.61-.94-.04-1.66-.84-1.61-1.78s.84-1.66,1.78-1.61,1.66.84,1.61,1.78Z"/>
    <path class="cls-1" d="M125.05,44.37c0,1.42-1.15,2.57-2.57,2.57s-2.57-1.15-2.57-2.57,1.15-2.57,2.57-2.57,2.57,1.15,2.57,2.57Z"/>
    <path class="cls-1" d="M209.42,46.19c0,.94-.76,1.7-1.7,1.7s-1.7-.76-1.7-1.7.76-1.7,1.7-1.7,1.7.76,1.7,1.7Z"/>
    <path class="cls-1" d="M213.68,26.6c-1.34-2.99-4.15-4.87-7.13-4.91-3.26-.05-14.37,1.58-16.33,2.05-1.96.48-5.31,2.45-5.96,4.3-1.62,4.63-1.96,21.84.72,28.57,1.42,3.58,4.48,4.23,7.2,4.61s12.99-.2,16.91-1.3,5.78-4.26,6.59-6.56c2.65-7.49-.44-23.26-2.01-26.76h.01ZM213.64,50.5c-.38,2.96-2.1,5.59-5.78,6.52s-14.14,2.22-16.58,1.03c-2.44-1.19-3.77-3.02-4.63-6.57-.86-3.56-.75-16.47-.13-19.24.62-2.77,2.47-4.58,4.76-5.34,3.54-1.18,11.94-2.48,14.86-1.82,2.91.67,4.83,2.34,5.97,5.06,1.15,2.72,1.91,17.39,1.53,20.35h0Z"/>
    <path class="cls-1" d="M191.83,36.47c3.83-.84,10.48-1.75,13.74-1.35,1.39.17,2.64-.21,2.62-1.19-.03-1.2-1.43-1.8-2.65-1.74-1.23.06-6.18.77-6.18.77l-.26-1.88s3.17-.11,3.89-.13c.82-.02,1.99-.4,1.84-1.41-.13-.88-1.06-1.23-2.18-1.17-1.12.07-3.72.29-3.72.29,0,0,.05-.72-.03-1.19-.08-.47-.91-.95-1.52-.86-.62.1-1.57.84-1.05,2.29,0,0-2.28.25-3.26.45s-1.39.93-1.25,1.48.69,1.06,1.95.95c1.61-.14,3.05-.47,3.05-.47l.34,1.94s-4.43.44-5.92.73-1.86,1.29-1.71,1.8c.21.7.88.99,2.3.68h0Z"/>
    <path class="cls-1" d="M199.13,36.32c-3.98,0-7.2,2.33-7.2,5.2s3.23,5.2,7.2,5.2,7.2-2.33,7.2-5.2-3.22-5.2-7.2-5.2ZM199.14,45.19c-2.22,0-4.03-1.64-4.03-3.67s1.8-3.67,4.03-3.67,4.03,1.64,4.03,3.67-1.8,3.67-4.03,3.67Z"/>
    <path class="cls-1" d="M197.62,45.22s-.86,8.77-.99,9.85c-.13,1.07.56,2.36,1.68,2.34,1-.02,2.12-.3,2.29-2.1.17-1.81-.36-9.65-.36-9.65l-2.63-.43h.01Z"/>
    <path class="cls-1" d="M201.3,49.28c1.14,2.01,4.06,4.87,6.76,5.26,1.1.16,2.4.07,2.67-1.12.38-1.68-1.7-1.48-4.15-2.61-1.06-.49-2.32-1.26-3.89-3.1-.46-.54-2.13.25-1.38,1.57h0Z"/>
    <path class="cls-1" d="M194.93,47.08c-1.11.88-2.57,1.98-3.34,2.16-1.08.26-1.79-.11-2.54-.07s-1.42,1.29-1.25,2.02c.3,1.28,1.93,1.65,4.13,1.13,1.58-.37,3.34-1.81,4.44-3.38.69-.99-.41-2.69-1.44-1.86h0Z"/>
    <path class="cls-1" d="M160.13,6.51c-.65-2.3-1.1-3.89-1.16-4.11-.47-1.66-1.55-2.81-3.03-2.27-1.46.53-1.41,2.4-1.03,3.56.07.21.4,1.1.9,2.43-2.08.07-4.06.53-5.84,1.31-.5-1.37-.84-2.29-.91-2.47-.59-1.62-1.76-2.68-3.19-2.03-1.42.64-1.22,2.5-.76,3.63.1.25.63,1.41,1.39,3.05-2.17,1.87-3.72,4.4-4.26,7.44-1.37,7.68,4.29,14.5,12.51,15.97,8.22,1.47,15.9-2.98,17.27-10.66,1.34-7.48-4.01-14.16-11.89-15.86h0ZM167.2,13.53c-1.41.24-3.03.6-4.77,1.04-.57-1.98-1.12-3.92-1.61-5.66,2.69.84,4.91,2.5,6.39,4.61h0ZM156.63,8.32c.77,2.03,1.71,4.53,2.67,7.09-1.91.54-3.87,1.14-5.76,1.75-.92-2.51-1.88-5.11-2.67-7.26,1.7-.97,3.67-1.53,5.75-1.59h0ZM145.51,17.31c.33-1.85,1.14-3.5,2.3-4.88.83,1.79,1.76,3.8,2.67,5.76-1.93.67-3.67,1.32-5.07,1.88-.08-.91-.06-1.83.1-2.76ZM169.04,21.51c-1.07,6.02-7.21,9.96-13.71,8.8-4.31-.77-7.68-3.59-9.16-7.16,1.47-.61,3.44-1.34,5.63-2.1,1.04,2.24,1.96,4.22,2.53,5.44.36.78,1.19,1.23,1.76.98.86-.38.85-1.07.54-1.92-.46-1.25-1.18-3.21-2-5.44,1.9-.62,3.87-1.22,5.78-1.75.73,1.94,1.43,3.82,2.03,5.46.34.91,1.1,1.28,1.75,1.04.69-.24.9-1.07.63-1.98-.47-1.6-1-3.42-1.54-5.3,2.05-.52,3.92-.92,5.38-1.11.52,1.59.67,3.31.36,5.04h.02Z"/>
    <path class="cls-1" d="M84.29,30.63c-1.03.02-1.51.62-.84,1.17.67.56.08,1.74-1.78,1.99-1.55.21-3.42.5-5.37.81.26-4.33.56-7.81.78-9.29.27-1.89-.84-2.73-1.8-2.75-1.3-.02-1.98,1.11-1.96,2.2.05,3.11.14,6.19-.02,10.34-4.95.82-9.61,1.65-10.19,1.74-1.48.21-3.33,1.34-2.87,2.8.42,1.35,2.48,1.63,3.71,1.22.54-.18,4.64-1.28,9.19-2.49-.29,4.48-.87,10.15-2,17.94-.39,2.66.57,4.17,2.28,4.17,1.58,0,2.61-1.23,2.48-4.17-.24-5.63-.06-12.7.24-18.74,4.96-1.32,9.64-2.56,10.11-2.7,3.85-1.15.41-4.27-1.96-4.23h0Z"/>
    <path class="cls-1" d="M135.1,29.41c-.3.04-1.89.33-3.94.7-.15-2.43-.26-4.21-.29-4.62-.12-1.49-.89-2.99-2.25-2.83s-1.67,1.96-1.48,3.29c.16,1.13.39,2.81.64,4.77-3.68.67-7.5,1.37-8.26,1.47-1.48.21-3.33,1.34-2.87,2.79.42,1.35,2.48,1.63,3.71,1.22.63-.21,4.28-1.28,7.83-2.31.85,6.82,1.77,15.1,1.58,16.72-.34,2.96-2.47,4.31-3.44,4.13-1.94-.36-3.44-2.54-5.09-.58-1.64,1.96.74,6.05,5.13,5.45,5.73-.78,6.34-6.17,6.02-10.01-.18-2.2-.68-10.38-1.05-16.63,2.06-.6,3.68-1.07,4.01-1.17,1.92-.58,1.46-2.64-.24-2.4h0Z"/>
    <path class="cls-1" d="M60.37,55.26c-2.04,2.1-4.15-.05-2.99-1.88,1.17-1.83,10.09-9.83,12.26-11.93,1.27-1.24,2.5.77,1.62,1.59-1.47,1.35-8.89,10.16-10.89,12.22Z"/>
    <path class="cls-1" d="M77.92,42.69c1.16,2.34,6.12,10.89,7.55,12.23s3.35,1.97,5.16,1.57c2.74-.62,3.75-2.97,2.87-4.67-.78-1.51-2.84-1.96-4.36-.94-.22.15-1.44,1.15-2.36-.07-1.97-2.6-6.03-8.69-6.67-9.64-.84-1.25-2.91.07-2.19,1.52Z"/>
    <path class="cls-1" d="M113.27,30.21c-.38.05-2.01.23-3.91.44.19-2.62.39-4.65.54-5.69.27-1.89-.84-2.73-1.8-2.75-1.3-.02-1.98,1.11-1.96,2.2.03,2.09.08,4.18.07,6.59-1.68.18-3.13.35-3.67.43-1.48.21-2.75,1.13-2.52,2.64.24,1.61,2.13,1.79,3.36,1.38.39-.13,1.45-.43,2.75-.79-.19,4.96-.74,11.43-2.17,21.3-.39,2.66.57,4.17,2.28,4.17,1.58,0,2.61-1.23,2.48-4.17-.29-6.73.03-15.5.43-22.13,2.03-.55,3.91-1.06,4.36-1.2,1.92-.58,1.46-2.64-.24-2.4v-.02Z"/>
    <path class="cls-1" d="M102.53,39.16c-1.04,1.24-2.72,3.48-4.15,5.96-.75,1.3-.28,2.6.47,3.06.87.54,2.4.47,3.17-1.39,1.04-2.53,2.2-5.96,2.48-6.82.35-1.06-.96-2.02-1.97-.81Z"/>
    <path class="cls-1" d="M116.47,48.06c-.48-1.14-2.37-5.53-3.35-7.44-.62-1.22-1.68-1.25-2.2-.89s-1.07,1.54-.05,3.03c1.18,1.72,3.95,5.59,4.38,6.14.52.67,1.66.18,1.23-.83h-.01Z"/>
    <path class="cls-1" d="M25.52,63.69C11.45,63.69,0,52.24,0,38.17S11.45,12.65,25.52,12.65s25.52,11.45,25.52,25.52-11.45,25.52-25.52,25.52ZM25.52,15.97c-12.24,0-22.2,9.96-22.2,22.2s9.96,22.2,22.2,22.2,22.2-9.96,22.2-22.2-9.96-22.2-22.2-22.2Z"/>
    <path class="cls-1" d="M40.47,36.13c-.21-.71-.86-1.19-1.59-1.19h-20.6l3.38-8.93h14.67c.92,0,1.66-.74,1.66-1.66s-.74-1.66-1.66-1.66H14.23c-.92,0-1.66.74-1.66,1.66s.74,1.66,1.66,1.66h3.87l-7.84,20.7c-.33.86.11,1.82.97,2.14.19.07.39.11.59.11.67,0,1.3-.41,1.55-1.07l3.65-9.63h20.56c.91,4.62-.68,9.33-4.22,12.25-3.82,3.15-9.03,3.53-13.91,1.02-.82-.42-1.82-.1-2.24.72s-.1,1.82.72,2.24c2.64,1.36,5.36,2.03,8,2.03,3.46,0,6.77-1.16,9.54-3.44,4.87-4.02,6.84-10.66,5.01-16.93v-.02Z"/>
    <path class="cls-1" d="M45.22,10.12c.87-.47,1.91-1,3.12-1.56l.26-.12-.52-1.08-.25.11c-.87.4-2.2,1.09-3.96,2.07-1.77.99-3.18,1.82-4.18,2.47l-.23.15.6,1.02.25-.15c1.39-.87,2.33-1.42,2.8-1.61.76-.3,1.79-.49,2.19-.03.63.72-.26,1.53-1.25,2.51-1.08,1.07-.58,2.18.05,2.72.44.38.93.57,1.46.57.38,0,.77-.1,1.18-.29.63-.3,1.42-.91,2.41-1.88l.16-.16-.63-1.02-.25.25c-.9.88-1.64,1.47-2.19,1.75-.56.26-1.01.24-1.35-.05-.44-.38-.21-.85.08-1.18.14-.16.37-.39.67-.7,1.63-1.63,1.44-3.26-.4-3.78h-.02Z"/>
    <path class="cls-1" d="M11.9,11.76c0-.13-.06-1.2-.06-1.2-1.3.05-3.02.58-3.02.58l-1.01-1.34,2.66-2.08-.68-.94-2.67,2.07-.61-.83,2.69-2.06-.68-.94-2.72,2.03-.81-1.08-.97.73.8,1.07-2.9,2.17.7.96,2.88-2.18.67.89-2.93,2.15.67.92,2.97-2.19.85,1.12c-.21.07-.97.52-1.35.81-1.07.82-1.42,2.07-.86,2.88.48.69,1.78.87,2.93.05,1.53-1.08,1.53-2.58,1.08-3.21.26-.07,1.44-.38,2.37-.38ZM8,14.28c-.6.52-1.28.71-1.53.42s.03-.94.63-1.46,1.28-.71,1.53-.42-.03.94-.63,1.46Z"/>
    <path class="cls-1" d="M38.12,4.15l.3-1.12-3.29-.83.32-1.31-1.17-.29-.32,1.3-3.52-.88-.3,1.14,3.51.86-.26,1.08-3.52-.91-.29,1.1,3.57.92-.33,1.36c-.19-.12-1.01-.42-1.48-.53-1.31-.31-2.5.21-2.77,1.15-.23.81.45,1.93,1.81,2.31,1.8.5,2.97-.44,3.17-1.19.21.16,1.21.88,1.8,1.6.1-.08.89-.81.89-.81-.86-.98-2.36-1.97-2.36-1.97l.4-1.63,3.29.74.29-1.12-3.29-.76.26-1,3.3.78h0ZM30.93,8.49c-.78-.14-1.36-.55-1.29-.93.07-.38.75-.57,1.53-.44.78.14,1.36.55,1.29.93s-.75.57-1.53.44Z"/>
    <path class="cls-1" d="M23.9,5.75c-.15-.82-.61-1.43-1.35-1.81-.68-.34-1.45-.44-2.3-.28-.34.06-.68.16-1.01.28.86-1.1,1.55-1.95,2.04-2.54.17-.1.45-.27.39-.55-.03-.16-.16-.31-.8-.7l-.17-.1-.31.24c-.66.14-2.09.46-4.29.95l-.28.06.28,1.15.26-.05c.54-.1,1.6-.36,3.24-.78-1.55,1.98-2.75,3.49-3.56,4.5l1.01.67c.31-.39.72-.76,1.23-1.12.68-.46,1.39-.77,2.11-.9.6-.11,1.12-.06,1.55.15.45.24.72.58.81,1.06.15.81-.19,1.44-1.04,1.93-.35-.4-.77-.74-1.27-.99-.64-.32-1.27-.43-1.87-.31-.45.08-.81.28-1.07.59-.29.32-.4.7-.32,1.11.08.43.37.99,1.26,1.22.28.08.59.11.93.11.32,0,.65-.03,1.01-.1,1.08-.21,1.95-.59,2.58-1.14.81-.7,1.12-1.59.92-2.65h.02ZM19.1,8.57c-.42-.06-.76-.28-.77-.57,0-.35.48-.61,1.01-.5.69.14.96.51.85.79-.1.26-.68.34-1.1.28h.01Z"/>
  </g>
  <g>
    <path class="cls-1" d="M6.31,84.72v-3.54l-1.16,2.3h-.8l-1.17-2.3v3.54h-1.19v-6.07h1.17l1.58,3.28,1.58-3.28h1.17v6.07h-1.18Z"/>
    <path class="cls-1" d="M18.83,84.72l-.36-1.07h-2.16l-.37,1.07h-1.24l2.21-6.07h.93l2.21,6.07h-1.24.02ZM17.41,80.44l-.77,2.21h1.51l-.74-2.21Z"/>
    <path class="cls-1" d="M30.51,84.72l-1.19-2.42h-.85v2.42h-1.19v-6.07h2.38c1.24,0,1.97.84,1.97,1.86,0,.85-.52,1.38-1.11,1.59l1.35,2.62h-1.37.01ZM29.59,79.71h-1.12v1.6h1.12c.52,0,.86-.33.86-.8s-.34-.8-.86-.8Z"/>
    <path class="cls-1" d="M41.47,84.77c-1.24,0-2.23-.84-2.23-2.13v-3.99h1.18v3.95c0,.7.41,1.12,1.05,1.12s1.06-.42,1.06-1.12v-3.95h1.18v3.99c0,1.29-.99,2.13-2.23,2.13h-.01Z"/>
    <path class="cls-1" d="M55.8,84.72v-3.54l-1.16,2.3h-.8l-1.17-2.3v3.54h-1.19v-6.07h1.17l1.58,3.28,1.58-3.28h1.17v6.07h-1.18Z"/>
    <path class="cls-1" d="M68.32,84.72l-.36-1.07h-2.16l-.37,1.07h-1.24l2.21-6.07h.93l2.21,6.07h-1.24.02ZM66.91,80.44l-.77,2.21h1.51s-.74-2.21-.74-2.21Z"/>
    <path class="cls-1" d="M80.36,84.72l-2.4-3.72v3.72h-1.19v-6.07h1.06l2.4,3.71v-3.71h1.18v6.07h-1.06.01Z"/>
    <path class="cls-1" d="M101.28,84.72l-1.56-2.76-.78.94v1.82h-1.18v-6.07h1.18v2.64l2.14-2.64h1.44l-2.01,2.41,2.16,3.66h-1.39Z"/>
    <path class="cls-1" d="M109.89,84.72v-6.07h1.18v6.07h-1.18Z"/>
    <path class="cls-1" d="M123.27,84.72v-3.54l-1.16,2.3h-.8l-1.17-2.3v3.54h-1.18v-6.07h1.17l1.58,3.28,1.58-3.28h1.17v6.07h-1.19Z"/>
    <path class="cls-1" d="M134.48,84.77c-1.24,0-2.23-.84-2.23-2.13v-3.99h1.18v3.95c0,.7.41,1.12,1.05,1.12s1.06-.42,1.06-1.12v-3.95h1.18v3.99c0,1.29-.99,2.13-2.23,2.13h0Z"/>
    <path class="cls-1" d="M147.73,84.72l-1.18-2.42h-.85v2.42h-1.18v-6.07h2.38c1.24,0,1.97.84,1.97,1.86,0,.85-.52,1.38-1.11,1.59l1.36,2.62h-1.39ZM146.81,79.71h-1.12v1.6h1.12c.52,0,.86-.33.86-.8s-.34-.8-.86-.8Z"/>
    <path class="cls-1" d="M160,84.72l-.36-1.07h-2.15l-.37,1.07h-1.24l2.21-6.07h.93l2.21,6.07h-1.24,0ZM158.59,80.44l-.77,2.21h1.51l-.74-2.21h0Z"/>
    <path class="cls-1" d="M178.09,79.71v1.49h2.39v1.06h-2.39v2.46h-1.18v-6.07h4v1.06h-2.82Z"/>
    <path class="cls-1" d="M191.85,84.72l-.36-1.07h-2.15l-.37,1.07h-1.24l2.21-6.07h.93l2.21,6.07h-1.24,0ZM190.44,80.44l-.77,2.21h1.51l-.74-2.21h0Z"/>
    <path class="cls-1" d="M203.53,84.72l-1.18-2.42h-.85v2.42h-1.18v-6.07h2.38c1.24,0,1.97.84,1.97,1.86,0,.85-.52,1.38-1.11,1.59l1.36,2.62h-1.39ZM202.61,79.71h-1.12v1.6h1.12c.52,0,.86-.33.86-.8s-.34-.8-.86-.8Z"/>
    <path class="cls-1" d="M216.66,84.72v-3.54l-1.16,2.3h-.8l-1.17-2.3v3.54h-1.18v-6.07h1.17l1.58,3.28,1.58-3.28h1.17v6.07h-1.19Z"/>
  </g>
</svg>