<?xml version="1.0" encoding="UTF-8"?>
<svg id="_レイヤー_1" data-name="レイヤー 1" xmlns="http://www.w3.org/2000/svg" viewBox="0 0 157.01 136.06">
  <defs>
    <style>
      .cls-1 {
        isolation: isolate;
      }

      .cls-2 {
        mix-blend-mode: multiply;
      }

      .cls-3 {
        fill: #42ac90;
      }
    </style>
  </defs>
  <g class="cls-1">
    <g id="_レイヤー_1-2" data-name=" レイヤー 1">
      <g class="cls-2">
        <path class="cls-3" d="M95.15,2.5C50.71-8.56,20.13,19.83,10.82,33.28c8.24.87,5.58,5.15,13.87,6.07,11.43,1.27,16.32,7.69,14.74,13.87-1.07,4.2,8.45,3.03,10.84,4.34,2.38,1.3,1.73,3.9,4.34,4.34,6.64,1.11,10.41-.65,9.32-5.42-1.08-4.77,7.15-6.72,10.62-5.64,3.47,1.08,7.15,2.17,7.59-3.03.43-5.2,7.37-8.24,12.14-4.77,4.77,3.47,11.06,3.47,11.49-.87.43-4.34,8.02-8.67,12.57-6.07,4.55,2.6,11.71,6.07,13.66,3.47,1.95-2.6,7.8-4.55,14.96.22.22-3.03-7.37-26.23-51.81-37.29h0ZM102.78,29.46c-.44-5.88-6.32-16.11-13.91-20.76-3.79,1.64-7.65,3.98-11.48,6.95,4.38,5.91,5.96,16.46,2.55,21.2-1.81,2.51-3.71,1.68-3.11-.81,1.14-4.79.5-13.66-2.28-18.06-6.54,5.62-12.88,13-18.37,21.75-1.47,2.35-5.67,1.36-3.51-2.32,3.1-5.27,7.03-10.57,11.37-15.37-4.32.31-15.33,2.65-24.82,6.62-3.82,1.6-4.38-1.38-1.15-3.11,3.17-1.7,19.59-7.4,29.57-7.27,2.76-2.74,5.62-5.24,8.49-7.39-6.57-.48-19.88-.59-26.53.81-3.86.81-7.38-1.04.12-2.88,6.92-1.7,23.16-1.44,29.98-.39,5.3-3.4,10.51-5.46,15.01-5.38,2.87.72,6.78,2.3,9.34,3.11-3.3-.5-6.86-.15-10.54.89,5.65,4.13,11.98,12.89,12.5,21.37.28,4.61-3,4.15-3.23,1.04h0Z"/>
        <path class="cls-3" d="M72.89,130.22c-7.29-4.37-12.31-15.88-10.05-26.57,2.27-10.69,2.11-15.07-6-15.39-8.1-.32-11.34-9.24-8.26-15.07s-.32-13.77-8.26-12.8c-7.94.97-5.18-9.72-8.26-13.29-3.08-3.56-8.43-2.27-14.91-6.81s-10.53-3.73-14.26-.49c-4.67,4.06-4.01,13.34,4.37,23.66,4.21,5.18-1.46,19.12,1.62,29.98s18.83,40.75,63.52,42.61c3.89.16,4.19-3.61.49-5.83h0ZM18.93,96.35c1.13,5.18-2.59,4.21-4.05-.81s-2.11-17.99.49-24.95c2.59-6.97,4.86-5.18,3.56.16-1.69,6.99-1.13,20.42,0,25.6h0ZM28.49,108.83c-4.54-9.24-5.84-25.16-.81-39.54,1.13-3.24,5.19-4.7,4.05,0-1.81,7.49-2.98,30.66,2.75,41.48,1.46,2.75-1.46,7.29-6-1.94h.01ZM50.53,120.98c-4.7-4.54-15.26-15.35-12.8-31.76.49-3.24,4.38-6.64,4.38-.97,0,8.27,5.83,25.76,11.67,30.79s1.46,6.48-3.24,1.94h-.01Z"/>
        <path class="cls-3" d="M152.77,52.28c-2.11-5.18-13.29-13.93-16.37-9.88s-7.07,3.43-10.53,1.46c-8.26-4.7-15.17-3.19-16.2.81-1.13,4.37-7.78,7.13-12.8,4.7s-10.53-3.08-10.37,1.94-5.67,7.13-9.88,5.35-9.24-.81-7.78,4.7-6.48,6.16-12.64,5.02c-2.92,6.64-6.48,18.31,1.78,17.99s16.37,5.67,11.34,14.91c-5.02,9.24,1.46,27.38,10.21,31.27,6.64-2.92,7.32,1.23,20.09.16,7.78-.65,19.93-3.08,34.35-11.34,24.92-14.28,26.85-47.26,18.8-67.08h0ZM145.32,84.36c-.67,7.74-6.8,18.44-17.25,24.1-1.16,4.08-2.88,7.66-5.27,10.41-2.11,2.43-6.48,2.59-4.86-.65.53-1.05,1.13-2.43,1.76-4.05-7.08-1.24-22.6-5.56-31.9-9.88-3.88-1.8-2.43-6,2.11-4.21,4.24,1.67,17.55,7.16,31.45,9.19,1.45-4.85,2.68-10.89,2.9-17.4-22.95-1.15-39.46-12.96-41.8-16.09-2.43-3.24,1.46-5.18,5.35-1.13,3.67,3.82,25.37,11.1,36.38,11.77-.11-1.75-.28-3.52-.57-5.29-2.59-15.88-7.29-24.47-10.37-28.19-3.08-3.73.56-6.11,3.56-2.75,4.07,4.55,7.51,11.84,9.85,20.12,3.73-3.25,7.64-10.8,7.49-15.74-.16-5.51,2.43-2.59,3.56,1.13,1.09,3.59-1.89,13.47-9.62,20.42,1.84,8.81,2.42,18.23,1.23,26.42,7.02-5.06,12.24-11.76,13.58-20.27,1.46-9.24,2.75-1.62,2.43,2.11v-.02Z"/>
      </g>
    </g>
  </g>
</svg>