<?xml version="1.0" encoding="UTF-8"?>
<svg xmlns="http://www.w3.org/2000/svg" version="1.1" viewBox="0 0 84.33 105.09">
  <!-- Generator: Adobe Illustrator 30.2.1, SVG Export Plug-In . SVG Version: 2.1.1 Build 1)  -->
  <defs>
    <style>
      .st0, .st1 {
        isolation: isolate;
      }

      .st1 {
        fill: #ea545c;
        mix-blend-mode: multiply;
      }
    </style>
  </defs>
  <g class="st0">
    <g id="_レイヤー_1">
      <g id="_レイヤー_1-2">
        <path class="st1" d="M58.98,29.17c-9.33-6.16-13.91-16.71-15.27-25.67-.42-2.75-2.07-4.15-4.06-3.21-1.11.53-2.28.76-3.21.5.88,11.24-4.8,20.5-12.83,29.62S1.34,48.3.07,68.9c-.99,16.09,8.07,27.55,21.33,32.86-6.56-7.19-14.17-17.81-13.25-32.03,1.7-26.31,25.1-39.5,28.01-51.79s3.83-6.2,1.37.57c-5.87,16.15-25.68,33.85-25.11,51.67.47,14.87,7.07,25.39,13.08,33,5.15,1.49,10.79,2.13,16.62,1.84-8.64-5.64-19.17-16-21.53-28.28-1.83-9.51,7.63-29.79,13.23-42.8,1.91-4.42,3.15-4.86,1.55.03-3.66,11.17-10.24,28.59-8.95,40.09,1.66,14.78,14.35,27.56,18.93,30.72.86-.09,1.72-.2,2.59-.33,3.59-.55,6.88-1.4,9.91-2.48-17.8-8-22.48-43.3-18.92-74.23.38-3.31,1.72-3.36,1.97-.25,2.99,36.97,14.94,65.63,18.72,73.81,3.75-1.51,7.06-3.41,9.94-5.6,1.73-10.69-4.18-28.72-12.83-40.99-7.2-10.23-13.54-21.43-16.08-36.67-.55-3.28.72-4.13,1.7-.19,1.65,6.58,4.09,14.36,10.57,22.12,10.35,12.4,22.47,27.22,20.1,52.77,2.49-2.43,4.52-5.15,6.17-8.03-.09-12.05-4.36-33.33-19.05-45.75-8.98-7.59-16.91-17.75-17.48-24.23-.12-1.43.96-1.92,1.14-1.03,1.27,6.3,5.54,12.97,15,20.69,10.38,8.47,25.13,23.76,22.91,45.12,1.93-5.01,2.78-10.37,2.59-15.72-.67-18.3-13.12-26.55-25.32-34.61h0Z"/>
      </g>
    </g>
  </g>
</svg>