<?xml version="1.0" encoding="UTF-8"?>
<svg id="_レイヤー_1" data-name="レイヤー 1" xmlns="http://www.w3.org/2000/svg" viewBox="0 0 214.46 334.41">
  <defs>
    <style>
      .cls-1 {
        fill: #ea545c;
        fill-rule: evenodd;
      }

      .cls-2 {
        isolation: isolate;
      }

      .cls-3 {
        mix-blend-mode: multiply;
      }
    </style>
  </defs>
  <g class="cls-2">
    <g id="_レイヤー_1-2" data-name=" レイヤー 1">
      <g class="cls-3">
        <path class="cls-1" d="M157.57,65.38c-17.82-14.75-32.67-4.27-47.42,13.55s-55.44,91.58-68.68,116.14S4.71,270.86.19,323.25c-.77,8.88.67,14.64,6.57,8.79,5.9-5.86,33.11-33.48,56.94-60.35s85.42-133.63,97.58-153.21c12.16-19.58,14.11-38.34-3.72-53.1h0ZM131.72,141.42c-1.6-1.64-2.99-2.41-5.09-2.98-2.11-.57-.88-1.84,1.97-1.19,1.6.37,3.65,1.48,4.31,2.45.67.98.41,3.35-1.19,1.71h0ZM137.11,117.18c-1.6-1.64-2.99-2.41-5.09-2.98-2.11-.57-.88-1.84,1.97-1.19,1.6.37,3.65,1.48,4.31,2.45.67.98.41,3.35-1.19,1.71h0ZM150.69,114.48c-2.59-2.74-8.75-9.13-11.09-10.27-2.34-1.13-1.09-3.17,1.88-1.86s9.5,7.44,11.17,9.95c1.68,2.52.65,4.95-1.97,2.17h0ZM154.71,95.87c-2.98-4.06-10.91-8.31-13.92-9.46s-1.78-3.73.84-2.78,11.66,3.42,15.18,11.18c1.55,3.42.88,5.12-2.1,1.06h0Z"/>
        <path class="cls-1" d="M127.57,9.63s14.63,26.78,11.22,42.13c1.89.02,11.15.14,14.38,1.95.12-.69-1.28-40-8.48-50.75l-17.12,6.67h0Z"/>
        <path class="cls-1" d="M164.7,60.84s-6.71-4.61-7.99-5.71c5.96-17.78,2.09-47.13-.22-54.66,0,0,11.64-2.29,15,3.27.61,1.15-1.02,28.19-2.83,33.47,4.1-2.38,13.69-19.77,14.74-23.79.68-.05,8.18,8.09,9.67,9.52,1.48,1.42-18.36,27.85-28.36,37.9h-.01Z"/>
        <path class="cls-1" d="M166.3,65.86c-.52-.56,33.27-36.57,34-35.94s6.37,11.15,6.37,11.15l-29.68,23.43,30.94-16.16,2.32,9.76s-24,12.87-23.31,12.99,27.52-5.27,27.52-5.27l-3.77,12.98-36.02,1.83s-3.13-9.18-8.37-14.76h0Z"/>
      </g>
    </g>
  </g>
</svg>