<?xml version="1.0" encoding="UTF-8"?>
<svg xmlns="http://www.w3.org/2000/svg" viewBox="0 0 154.35 170.08">
  <defs>
    <style>
      .cls-1 {
        isolation: isolate;
      }

      .cls-2 {
        mix-blend-mode: multiply;
      }

      .cls-3 {
        fill: #f3e025;
      }
    </style>
  </defs>
  <g class="cls-1">
    <g id="_レイヤー_1" data-name="レイヤー 1">
      <g class="cls-2">
        <path class="cls-3" d="M42.41,81.81c.32,2.16.8,4.54,1.21,6.47,4.49-.3,9.9-1.32,14.32-2.04-1.06-7.3-2.74-15.06-3.99-22.57.56-3.41-5.95-.37-8.27-.5-1.78.72-8.18-.79-6.04,2.43.94,5.39,1.94,10.76,2.77,16.2Z"/>
        <path class="cls-3" d="M52.11,108.08c2.36-1.28,10.92.67,9.34-3.01-1.47-2.77-.65-16.02-4.28-14.35-2.74,1.9-13.87-.21-12.58,3.53.97,4.24,1.67,8.48,2.43,12.8-.71,3.26,3.18.58,5.09,1.03Z"/>
        <path class="cls-3" d="M64.99,124.66c-3.34-17.5.03-13.56-16.9-11.62.61,3.79,1.3,8.14,2.21,12.08-.8,4.31,2.42,2.98,5.29,2.38,2.47-1.2,11.03.61,9.4-2.83Z"/>
        <path class="cls-3" d="M63.41,91.69c3.67,17.57-.8,14.81,17.04,12.44-.65-4.04-1.38-8.62-2.34-12.8.77-4.4-2.29-3.25-5.32-2.56-2.5,1.22-11.15-.66-9.38,2.92Z"/>
        <path class="cls-3" d="M98.68,74.42c.94,9.72,2.9,5.07,10.39,4.88,4.24.39,2.89-1.9,2.11-5.01-.71-4.57-1.48-9.5-2.49-13.86-15.63,1.43-11.82-.4-10.01,13.98Z"/>
        <path class="cls-3" d="M82.19,89.14c3.67,17.57-.8,14.81,17.04,12.44-.65-4.04-1.38-8.62-2.34-12.8.77-4.4-2.29-3.25-5.32-2.56-2.5,1.22-11.15-.66-9.38,2.92Z"/>
        <path class="cls-3" d="M42.57,107.65c-3.63-13.48,2.49-16.22-13.94-12.86.64,4.03,1.38,8.62,2.34,12.8-.79,4.44,2.38,3.2,5.41,2.52,1.92-.81,8.35.9,6.19-2.47Z"/>
        <path class="cls-3" d="M115.48,97.73c-3.35-15.05,2.08-15.44-14.8-12.83.69,4.01,1.79,8.59,2.41,12.88-.33,4.11,2.12,3.06,5.13,2.71,1.93-1.32,9.19.79,7.26-2.77Z"/>
        <path class="cls-3" d="M83.77,122.1c-3.34-17.49.04-13.56-16.9-11.62.61,3.79,1.3,8.14,2.21,12.08-.8,4.31,2.42,2.98,5.29,2.38,2.47-1.2,11.02.61,9.4-2.83Z"/>
        <path class="cls-3" d="M98.73,126.12c-10.56,1.68-10.6-1.23-8.04,10.08,1.96-.41,16.49-1.09,14.18-3.46-1.51-5.26.9-8.68-6.14-6.62Z"/>
        <path class="cls-3" d="M112.82,28.7c4.63-6.26,13.79-8.11,15.71-5.32,4.67,6.77,17.63,5.06,22.92,3.23,5.29-1.84,2.24-4.77-.37-4.59-2.61.19-16.94.48-26.79-11.96C114.44-2.38,93.78-.44,89.66,1.2c-3.19,1.27,1.32,8.09,3.68,6.76,7.39-3.68,20.25.42,24.26,4.31,1.96,1.91,4.39,4.66-.46,5.79-1.81.43-8.24,2.62-11.21,7.19-2.04-.89-4.13-1.72-6.29-2.44C60.06,9.55,17.22,30.87,3.94,70.44c-13.27,39.58,8.05,82.42,47.62,95.69,39.58,13.27,82.42-8.05,95.69-47.62,11.71-34.92-3.52-72.36-34.44-89.82ZM43.58,34.33c5.01-2.45,11.49-1.71,17.03-3.03,2.82.64,1.05-1.88.99-3.45,1.09-5.61,5.37-.58,4.96,2.69,14.51-4.09,22.72,2.58,2.49,4.1-3.98-.71.38,4.08-1.32,5.93-5.36,4.38-2.86-6.72-6.33-4.85-4.19-.79-19.43,6.06-17.83-1.4ZM133.73,101.39c-2.81,1.39-13.81-.4-12.45,3.36.76,4.94,1.77,9.87,2.56,14.78-1.69,6.3-5.86-.71-5.18-4.35-2.01-3.65.62-13.83-5.13-11.01-11.24.86-9.33-.05-7.42,10.25.55,2.01.42,4.4.97,6.14,4.44-2.57,9.73,3.53,2.57,4.11-3.53-.79-.63,2.72-.96,4.56.54,1.76-.4,5.58,2.54,4.25,4.52-2.16,6.03,5.06.78,4.36-3.67-1.06.25,3.8-3.23,4.36-2.71.49-2.01-2.24-2.94-3.58-4.32.69-9.88.9-14.21,2.01,3.34,9.46-1.65,18.93-4.04,3.49.73-7.35-9.72,1.96-11.95-3.68-.34-5.52,11.66-.7,10.21-5.13-.76-3.48.67-9.01-4.3-6.81-2.83,1.43-11.58-.82-10.94,2.99-.11,3.89,7.71,27.29-1,19.15-1.09-5.13-1.82-10.32-2.79-15.47-.5-5.07-.85-5.01-5.69-4.06-2.41,1.13-10.8-.42-9.1,3.08,3.86,14.31-3.85,14.92-4.51.61,1.05-3.39-11.32.61-4.53-5.81,6.71,1.82.82-8.5,1.29-12.36.59-5.57-5.25-1.49-8.77-1.93-5.99-.85-1.42,6.02-1.52,9.65.04,4.01-5.28,2.57-4.69-.93-.75-2.48-.78-5.4-1.43-7.65-2.79-.35-10.98,3.47-9.16-2.57,3.01-2.85,10.15,1.06,8.01-5.03-2.41-4.83.53-15.53-7.42-12.04-3.12,1.21-13.12,1.16-7.36-3.62,3.78-.26,7.93-1.15,11.43-1.53.62-4.44-5.35-15.05-.87-17.68,5.92-.07,2.24,18.88,6.98,17.02,2.44-1.44,10.41.49,9.52-3.07-1.54-7.46-2.53-15.29-4.21-22.5-5.45,0-11.67,2.51-17.22,1.63-3.75-6.49,11.27-4.34,14.97-5.9,3.46,0-.07-6.87-.23-9.31-1.31-3.3,0-10.67,3.87-5.18.28,4.2,1.39,8.11,2.02,12.16-1.31,3.5,12.2-.61,14.71-.42-5.12-15.41.43-27.39,3.82-3.64,1.63,8.46,2.67,16.96,4.72,25.29.33,7.91,2.14,6.56,8.94,5.1,13.47,1.35-.23-9.09,8.96-8.01,3.53,10.74,1.37,5.41,14.64,4.98,3.85,1.29-2.05-15.94-1.72-18.87-5.03.57-10.5,1.64-15.78,2.12-6.22-1.83.29-5.68,3.97-4.9,12.38-2.07,11.86,1.09,9.26-11.68-6.86,1-14.21,2.1-21.31,2.82-4.13,2.41-17.36-.02-7.24-3.19,7-1.14,14.11-2.23,21.22-2.83,13.55-.14.51-7.36,6.95-11.02,4.27.1,2.76,6.85,3.86,9.43,3.72-.4,7.88-1.26,11.8-1.64,3.18-1.69,8.8,1.28,4.12,3.85-4.97.87-10.39,1.14-15.12,2.02,1.4,2.3-.24,10.87,3.52,9.95,8.7-1.45,17.43-2.31,26.14-3.8,10.91,6.44-12.61,3.72-10.01,7.58.24,5.28,2.02,10.29,2.51,15.54.51,3.8,7.05-.44,9.85.35,19.97-3.48,8.53,5.85-4.01,4.78-9.1-.27-2.2,6-2.76,12.01,1.04,1.68-.42,6.36,2.51,4.54,3.41-.26,18.79-3.73,11.97,2.9Z"/>
        <path class="cls-3" d="M101.31,111.97c-1.11-1.9-.22-4.39-1.23-6.08-4.09.34-8.52,1.65-12.84,1.78-3.88-.05,1.01,9.32.64,12.34-.49,6.3,9.04.53,13.3,1.48,3.98-.09-.71-6.71.12-9.51Z"/>
      </g>
    </g>
  </g>
</svg>