<?xml version="1.0" encoding="UTF-8"?>
<svg id="_レイヤー_1" data-name="レイヤー 1" xmlns="http://www.w3.org/2000/svg" viewBox="0 0 140.06 243.68">
  <defs>
    <style>
      .cls-1 {
        isolation: isolate;
      }

      .cls-2 {
        mix-blend-mode: multiply;
      }

      .cls-3 {
        fill: #f3e025;
        fill-rule: evenodd;
      }
    </style>
  </defs>
  <g class="cls-1">
    <g id="_レイヤー_1-2" data-name=" レイヤー 1">
      <g class="cls-2">
        <path class="cls-3" d="M.2,42.17c-1.47,11.45,5.51,12.94,9.31,17.55,3.8,4.6-.48,11.78,3.73,17.85,4.21,6.06,9.84,4.8,12.32,9.15s-2.19,11.94,3.92,14.02c6.61,2.25,13.94,1.46,25.66,12.98-11.26-26.76-28.11-64.55-37.06-79.68-7.25-6.79-16.78-.35-17.87,8.14h-.01Z"/>
        <path class="cls-3" d="M138.85,186.88c-5.18-11.45-18.26-14.77-30.68-13.56-3.14-7.53-24.76-59.74-22.6-65.59,1.26-3.41,8.86,1.3,10.73-5.52,1.09-3.98-7.15-3.04.93-9.07,8.07-6.03-2.25-14.8-14.35-10.79s-7.47,17.2-5.35,24.79c1.9,6.81,21.43,56.77,25.42,66.96-1.42.28-2.81.62-4.16,1.01-6.95-16.68-26.61-69.2-28.74-77.84-2.32-9.43,4.1-16.88,12.14-18.5,8.05-1.62,14.25-8.7,11-14.72-3.26-6.02-2.42-13.17.36-18.99,2.78-5.81,2.12-13.81-4.56-18.56-6.68-4.74-5.88-10.84-4.32-15.48,3.6-10.77-12.36-15.22-18.71-6.11-10.33,14.85-17.24,57.71-5.46,87.47,9.96,25.16,27.93,70.96,33.25,84.53-1.23.52-2.41,1.08-3.55,1.69-2.62-6.39-35.46-86.56-39.69-101.69s-.83-36.92,3.18-52.83c2.39-9.48-2.5-21.71-10.65-15.6-4.68,3.51-6.02,3.26-7.58-.09-1.56-3.34-9.31-4.01-10.37.06-1.07,4.08-4.82,2.75-7.51,2.41-6.2-.79-9.11,5.69-3.77,10.18,5.35,4.49,19.49,29.18,30.78,57.19,10.35,25.67,37.96,91.4,42.5,102.19-10.8,7.09-16.55,18.32-13.18,28.68,4.42,13.56,29.47,31.11,45.24,34.58,4.03-5.85,26.27-42.29,19.7-56.82v.02Z"/>
      </g>
    </g>
  </g>
</svg>