<?xml version="1.0" encoding="UTF-8"?>
<svg id="_レイヤー_1" data-name="レイヤー 1" xmlns="http://www.w3.org/2000/svg" viewBox="0 0 186.97 206.64">
  <defs>
    <style>
      .cls-1 {
        isolation: isolate;
      }

      .cls-2 {
        mix-blend-mode: multiply;
      }

      .cls-3 {
        fill: #f3e025;
        fill-rule: evenodd;
      }
    </style>
  </defs>
  <g class="cls-1">
    <g id="_レイヤー_1-2" data-name=" レイヤー 1">
      <g class="cls-2">
        <path class="cls-3" d="M11.48,195.87c-12.27-8.79-3.67-26.83,9.24-43.48,12.91-16.65,90.16-71.97,98.05-74.44,7.89-2.47,4.49,2.35.47,6.55-33.1,34.6-45.56,84.8-62.4,102.09-16.85,17.29-29.87,20.39-45.36,9.28h0Z"/>
        <path class="cls-3" d="M182.25,73.04c2.17,18.16-9.08,41.46-37.33,51.29-28.25,9.83-51.25,6.2-56.31,22.76s-12.94,44.24-24.05,53.44c-11.11,9.19-26.86,5.46-29.23,4.82,17.8-4.19,31.08-17.76,38.27-33.8s16.67-45.19,27.17-46.9c6.56-1.07,20.4-.18,35.6-6.5,9.12-3.79,33.75-19.03,45.88-45.1h0Z"/>
        <path class="cls-3" d="M113.72,9.59c7.79-7.09,32.58-19.27,45.36,3.92-8.56-.28-21.88,6.26-23.8,7.06-1.45-5.26-9.47-8.86-21.56-10.98h0Z"/>
        <path class="cls-3" d="M130.61,22.62c-2.51-12.41-33.29-13.81-57.77,11.19-24.48,25-9.74,57.62-18.92,72.32-9.19,14.7-35.65,24.56-46.48,37.8-10.83,13.24-8.02,36.31-2.96,25.16,9.91-21.82,32.33-37.71,68.79-67.84,3.22-19.92,13.69-65.76,57.34-78.64h0ZM84.72,34.38c-.69,1.9.05,12.2.5,15.07.46,2.87-3.06,3.17-3.79.47s.02-13.61,1.54-16.88c.96-2.07,2.44-.56,1.75,1.34ZM71.71,73.03c-1.77-1.93-1.23-13.74-.7-16.52.44-2.29,2.23-1.36,1.8-.07s1.48,12.13,2.33,14.84c.85,2.72-1.67,3.67-3.43,1.74h0ZM96.77,37.15c-1.19-1.62,1.48-11.93,2.75-13.98s2.71-3.11,1.61-.08c-1.14,3.15-1.28,9.56-1.25,11.48s-1.91,4.19-3.11,2.57h0Z"/>
        <path class="cls-3" d="M180.34,21.63c-15.24-12.17-49.87,1.82-70.13,17.03s-33.07,46.02-30.35,59.74c3.37-2.44,33.8-21.03,39.46-24.37,5.65-3.35,12.71.95,6.4,7.85-6.31,6.9-22.38,27.3-26.72,36.74,17,.19,39.72.37,61.69-23.85s34.89-60.97,19.65-73.14h0ZM107.14,71.88c-2-1.86.94-12.88,4.29-15.92,3.36-3.04,2.09.34.56,2.31s-3.47,9.54-2.5,11.06-.48,4.29-2.35,2.56h0ZM130.99,52.81c-.26-2.41,6.73-18.3,10.31-22.62,2.05-2.46,3.6-.13,1.67,1.63s-6.83,17.88-7.08,20.77c-.25,2.9-4.65,2.62-4.9.21h0ZM126.44,103.8c-1.36,1.39-7.83,6.33-9.61,6.09s-2.23-2.04-.37-2.62c1.87-.59,8.74-3.76,9.31-4.51s1.79-.1.67,1.04h0ZM142.43,88.83c-1.83,1.57-11.61,5.79-13.39,4.86-1.78-.93.16-3.2,2.06-3.46,1.91-.27,8.21-1.39,11.16-3,2.83-1.55,2,.04.17,1.6h0ZM170.09,58.63c-1.53,1.47-16.18,9.71-18.99,10.25-2.81.55-3.96-2.07-.54-3.31,3.42-1.24,13.44-5.13,18.46-8.76,2.43-1.76,2.59.35,1.07,1.82Z"/>
      </g>
    </g>
  </g>
</svg>