<?xml version="1.0" encoding="UTF-8"?>
<svg id="_レイヤー_1" data-name="レイヤー 1" xmlns="http://www.w3.org/2000/svg" viewBox="0 0 227.84 261.12">
  <defs>
    <style>
      .cls-1 {
        fill: #42ac90;
        fill-rule: evenodd;
        mix-blend-mode: multiply;
      }

      .cls-1, .cls-2 {
        isolation: isolate;
      }
    </style>
  </defs>
  <g class="cls-2">
    <g id="_レイヤー_1-2" data-name=" レイヤー 1">
      <path class="cls-1" d="M123.77,52.99c-7.7-5.55-11.42-12.6-7.02-11.32,9.12,2.65,19.56-8.45,14.26-16.74-5.3-8.29-21.84-11.27-23.87,3.65-.5,3.65-3.81,2.65-6.47-.66-2.65-3.32-7.29-11.94-3.98-24.04,0-1.66-12.1-7.13-13.1-1.16-.99,5.97,4.81,31.99,21.05,37.96,1.03,2.4,4.89,8.26,7.68,11.94C50.15,53.41,0,99.76,0,156.85s51,104.27,113.92,104.27,113.92-46.68,113.92-104.27c0-54.55-45.78-99.29-104.08-103.85h.01ZM119.4,23.93c3.3,0,5.97,2.67,5.97,5.97s-2.67,5.97-5.97,5.97-5.97-2.67-5.97-5.97,2.67-5.97,5.97-5.97ZM61.41,242.96c-4.63-1.54-24.71-18.54-28.19-23.56s-1.93-13.13-3.86-15.83-8.5-6.56-9.27-13.13c-.77-6.56-2.7-23.56-6.18-27.8-3.48-4.25,1.54-11.59,2.7-15.83,1.16-4.25-2.32-10.81.39-16.99,2.7-6.18,9.65-12.36,10.04-20.85.39-8.5,17.6-30.84,36.77-36.67,7.93-2.41,15.43-1.79,8.11,1.93-19.81,10.07-29.82,27.01-30.21,32.42-.39,5.41-5.79,16.99-6.95,23.17s-2.32,23.17-1.16,29.73,2.7,20.08,1.16,25.49,1.93,16.22,5.79,19.69c3.86,3.48,3.47,15.06,8.88,17.76s13.52,15.83,16.22,18.15.39,3.86-4.25,2.32h0ZM74.93,130.97c4.25,21.63-5.79,25.49-3.09,35.53s-3.48,18.54,1.16,24.71c4.63,6.18,6.18,23.94,10.04,30.51,3.86,6.56,12.36,24.71,13.9,28.19s-2.7,3.48-6.18,1.16c-3.48-2.32-22.4-12.74-32.05-36.3s-16.99-40.93-15.45-48.66c1.54-7.72,10.04-5.79,10.43-8.5s-3.48-8.5-6.18-12.36c-2.7-3.86,5.02-10.81,5.79-19.69.77-8.88,7.34-19.69,13.52-30.89s7.72-18.92,23.17-27.42c7.99-4.39,18.54-5.79,13.9,1.16-4.63,6.95-33.21,40.93-28.96,62.56h0ZM118.51,247.59c-9.04,11.6-13,7.66-11.91,1.16.65-3.88,3.48-27.03,1.54-35.53-1.93-8.5-.39-15.83.77-18.92,1.16-3.09-4.63-7.72-4.63-15.45s4.63-16.22,4.25-23.17c-.39-6.95-3.09-20.08-.39-26.65,2.7-6.56,5.41-16.22.39-20.08-5.02-3.86,1.54-12.74,4.25-16.22,2.7-3.48,1.16-9.27,1.16-11.59s1.54-8.88,3.48-12.36c1.73-3.11,3.42-4.94,6.95-.77,8.5,10.04,6.56,15.06,8.5,22.01,1.93,6.95,5.02,20.08,3.48,27.8-1.54,7.72-4.25,22.4-2.32,29.35,1.93,6.95-.39,22.78,4.25,28.96,4.63,6.18-.77,20.08-.77,27.42s-5.02,25.49-10.81,33.21c-5.79,7.72-6.65,8.86-8.17,10.81l-.02.02ZM130.54,249.14c5.02-3.86,22.01-25.49,25.1-32.44s10.81-25.49,6.18-40.16c-1.92-6.07,3.09-17.76,2.32-22.4-.77-4.63-2.32-21.63-1.16-27.03,1.16-5.41-9.65-15.45-8.88-21.63s-3.48-18.54-17.76-37.07c-3.51-4.55.17-4.2,3.48-2.32,8.11,4.63,8.88,12.36,13.9,15.06s15.45,13.13,18.92,18.92c3.48,5.79,7.34,22.78,9.27,28.19s7.34,26.65,5.79,37.07c-1.54,10.43-8.5,33.98-11.58,42.48-3.09,8.5-2.32,19.69-7.34,25.49-5.02,5.79-27.42,19.69-34.37,21.63-6.95,1.93-8.88-1.93-3.86-5.79h-.01ZM168.82,244.73c-.79.49-1.66-.52-1.03-1.21,24.65-27.06,34.13-64.05,33.03-74.69-1.16-11.2-11.58-24.33-11.2-31.28s8.5-12.74,5.02-18.92,1.54-9.65-4.25-13.13-13.52-18.54-17.38-22.4c-3.86-3.86-1.16-6.95,2.7-3.86,13.81,11.05,37.84,42.86,39.78,60.24,1.93,17.38-8.71,35.21-6.56,59.47.71,7.99-13.99,29.75-40.11,45.79h0Z"/>
    </g>
  </g>
</svg>