<?xml version="1.0" encoding="UTF-8"?>
<svg id="_レイヤー_1" data-name="レイヤー_1" xmlns="http://www.w3.org/2000/svg" version="1.1" viewBox="0 0 109.95 87.31">
  <!-- Generator: Adobe Illustrator 30.3.0, SVG Export Plug-In . SVG Version: 2.1.3 Build 182)  -->
  <defs>
    <style>
      .st0, .st1 {
        isolation: isolate;
      }

      .st1 {
        fill: #e5d731;
        fill-rule: evenodd;
        mix-blend-mode: multiply;
      }
    </style>
  </defs>
  <g class="st0">
    <g id="_レイヤー_11" data-name="_レイヤー_1">
      <path class="st1" d="M85.41,9.77c-2.3-4.78-15.41-8.46-31.28-8.46-17.28,0-31.31,4.35-31.65,9.76C9.52,18.72,1.14,30.83,1.14,44.45c0,23.15,24.16,41.91,53.96,41.91s53.96-18.76,53.96-41.91c0-14.42-9.38-27.14-23.65-34.68h0ZM62.97,8.23c1.94-1.6,8.1-2.6,10.07-2.6s3.22,1.25.73,1.66c-2.49.42-8.62,1.14-9.86,1.87-1.25.73-2.7.52-.93-.93h-.01ZM60.86,14.94c0,2.6-4.38,4.72-9.78,4.72s-9.78-2.11-9.78-4.72,4.38-4.72,9.78-4.72,9.78,2.11,9.78,4.72ZM41.16,4.7c1.11.35,2.49,1.25,2.91,1.97.42.73.1,2.39-.93,1.14-1.04-1.25-1.97-1.87-3.43-2.39-1.45-.52-.52-1.35,1.45-.73h0ZM25.38,14.77c1.97-.93,6.55-2.03,8.62-1.66,5.19.93-.31,1.97-3.32,2.39s-7.27.21-5.3-.73ZM11.16,31.84c2.09-3.38,9.99-8.54,13.1-9.75,3.35-1.31,4.51.74,1.39,1.46s-11.03,6.47-12.97,9.14-3.61,2.53-1.52-.85h0ZM18.37,71.77c-6.49-4.28-12.15-20.91-9.92-27.86,1.14-3.55,1.71-2.33,1.72.04.02,7.34-.43,15.74,9.47,26.58,3.07,3.36,3,4.05-1.27,1.24ZM23.93,51.63c.52,1.77-1.14,2.08-1.87-.1-.73-2.18-.62-8.51-.1-10.59s2.28-2.7,2.08,0c-.2,2.66-.62,8.93-.1,10.7h0ZM31.03,76.24c-1.76-1.48-4.99-6.93-5.63-8.97-.65-2.04.53-3.5,1.77-1.09,1.22,2.37,4.14,7.93,5.51,9.17,1.37,1.23.11,2.37-1.65.89h0ZM41.37,77.49c-11.84-15.26-14.52-35.76-3.22-49.32,1.56-1.87,1.77-.73,1.04.31-7.73,11.04-10.38,31.57,4.57,49.01,1.15,1.34-1.43,1.23-2.39,0ZM50.79,68.23c-1.1-1.64-5.22-6.84-3.97-12.74.55-2.6,1.64-3.29,1.64.27s2.74,9.32,3.97,11.24c1.23,1.92-.55,2.88-1.64,1.23ZM50.93,25.14c-5.4,0-9.59-3.64-9.59-6.25,0-.25.05-.49.13-.73.73,2.26,4.76,3.99,9.65,3.99s8.92-1.73,9.65-3.99c.08.24.13.48.13.73,0,2.6-4.57,6.25-9.97,6.25ZM62.3,61.66c0-3.84-2.6-23.98-3.43-27.13-.82-3.15.82-3.29,1.64-.96,2.28,6.46,4.38,25.21,4.38,27.95s-2.6,3.97-2.6.14h0ZM78.77,71.3c-.61,1.43-3.09,2.19-2.31.6,10.09-20.64,2.36-39.84-7.89-48.59-.96-.82-1.05-1.98.93-.56,14.35,10.29,16.9,30.8,9.28,48.55h0ZM89.78,35.53c.22-3.32-8.83-15.13-11.45-15.85-2.03-.55-2.26-2.67.33-1.49,7.16,3.27,12.48,12.58,12.59,17.22.1,4.03-1.64,2.93-1.46.12h0ZM97.75,62.53c-2.47,2.79-2.51,1.44-1.56-.73,2.95-6.72,6.75-14.23,2.08-28.14-1.45-4.32-1.1-4.92,1.66-.62,4.21,6.53,2.66,24.03-2.18,29.49Z"/>
    </g>
  </g>
</svg>